<svg width="63" height="26" viewBox="0 0 63 26" fill="none" xmlns="http://www.w3.org/2000/svg">
<mask id="path-1-outside-1_1_41" maskUnits="userSpaceOnUse" x="0" y="-1" width="63" height="27" fill="black">
<rect fill="white" y="-1" width="63" height="27"/>
<path d="M52.2252 23.2101L49.8747 23.6519C49.7319 23.6706 49.6005 23.5911 49.5817 23.4483L48.4361 17.3052C48.4174 17.1624 48.5088 17.0294 48.6397 17.0122L50.0105 16.7596C50.6264 16.4729 51.2326 16.2965 51.8275 16.2184C52.232 16.1653 52.6309 16.1613 53.0107 16.1961C53.1954 16.2203 53.2793 16.3061 53.298 16.4489C53.3043 16.4965 53.2986 16.5456 53.2945 16.6067L53.1698 18.3296C53.156 18.5008 53.0479 18.5997 52.9052 18.6185C52.8695 18.6232 52.8203 18.6175 52.7712 18.6119C52.573 18.5774 52.366 18.5683 52.1638 18.5948C51.9972 18.6167 51.8338 18.6624 51.6496 18.735L52.4288 22.9171L52.4319 22.9409C52.4491 23.0718 52.3561 23.1929 52.2252 23.2101Z"/>
<path d="M44.2716 23.6488L44.1292 23.6271C41.4362 23.2176 40.3634 21.1731 40.6376 19.3698C40.8956 17.6733 42.3644 16.076 45.0693 16.4873C48.0115 16.9347 47.7433 19.5764 47.6837 19.9679C47.6008 20.5136 47.3068 20.9302 46.5708 21.061C45.9843 21.166 45.0865 21.163 44.466 21.0929C44.2762 21.0641 44.2295 20.972 44.2037 20.8224C44.1209 20.4093 44.0127 19.6039 44.02 19.5564C44.0398 19.4259 44.1437 19.381 44.3034 19.3689C44.9419 19.3203 45.0286 19.3092 45.0538 19.1431C45.0701 19.0364 44.9024 18.6225 44.4041 18.5467C43.8347 18.4601 43.2844 18.8862 43.1725 19.6218C43.0444 20.4641 43.517 21.507 45 21.7325C45.083 21.7451 45.1779 21.7595 45.2628 21.7603L45.2865 21.7639C45.4526 21.7892 45.638 21.9266 45.6074 22.1283C45.5893 22.2469 45.1582 23.0067 44.9189 23.3831C44.7951 23.5584 44.6156 23.7011 44.2716 23.6488Z"/>
<path d="M40.4778 21.1294L39.7748 22.6672C39.7033 22.8139 39.6213 22.9015 39.5031 22.9224C39.444 22.9329 39.3689 22.9218 39.2897 22.887C38.5646 22.5765 36.9266 21.9278 36.2571 21.6562C36.1778 21.6214 36.0902 21.5394 36.0714 21.4331C36.061 21.374 36.0742 21.3107 36.1207 21.2294L36.8092 20.0231C36.2672 20.4723 35.7758 20.8639 35.5604 21.0238L35.4957 21.0718L35.9593 23.0737C35.9844 23.2155 35.9107 23.3503 35.7689 23.3754L33.4286 23.9232C33.2986 23.9462 33.1637 23.8725 33.1268 23.7328L30.9238 14.1662L30.9196 14.1426C30.8987 14.0244 30.9863 13.8993 31.1024 13.8666L33.4448 13.3306L33.4684 13.3264C33.5984 13.3035 33.7118 13.3931 33.7466 13.521L34.8944 18.4972C35.312 18.0334 37.0771 16.1615 37.597 16.0696C37.6916 16.0529 37.8063 16.0814 37.928 16.2183L39.1908 17.6401C39.2506 17.7027 39.2867 17.7694 39.2993 17.8403C39.3202 17.9585 39.2681 18.0774 39.1388 18.1733C38.8684 18.3674 38.2596 18.8527 37.6196 19.368C38.4927 19.4818 40.4415 20.4412 40.5188 20.8784C40.5313 20.9493 40.5202 21.0244 40.4778 21.1294Z"/>
<path d="M30.3819 22.4983L29.409 23.808C29.2689 23.9914 29.1328 24.0782 28.9789 24.0525C28.8605 24.0328 28.0636 23.7051 27.5647 23.05C26.8958 23.2668 26.233 23.3022 25.6293 23.2014C23.6527 22.8715 22.2011 21.072 22.5192 19.1663C22.7563 17.746 24.1042 15.8662 26.4477 16.2574C27.0396 16.3562 27.5978 16.5832 28.0258 16.8615C28.1107 16.7905 28.2231 16.7727 28.3652 16.7965L28.4243 16.8063L30.4424 17.3257C30.7462 17.4007 30.8033 17.5684 30.7796 17.7104L30.7697 17.7696C30.4243 18.8191 30.0867 19.8212 29.9563 20.6024C29.8377 21.3125 29.883 21.8432 30.2281 22.1077C30.3366 22.1866 30.455 22.2793 30.4352 22.3977C30.4313 22.4214 30.4135 22.4549 30.3819 22.4983ZM27.0581 21.0554C27.074 20.7417 27.1056 20.4063 27.1669 20.0394C27.2183 19.7317 27.2834 19.4141 27.3664 19.0629C27.2639 18.8025 26.9719 18.5835 26.6287 18.5262C25.883 18.4017 25.3482 19.0546 25.2475 19.6582C25.1368 20.321 25.5036 20.9662 26.273 21.0946C26.4978 21.1322 26.7661 21.1283 27.0581 21.0554Z"/>
<path d="M17.9762 23.0531L15.8072 23.5931L15.7836 23.5977C15.6658 23.6204 15.5511 23.5325 15.5143 23.4051L14.9176 20.9415C14.6294 19.7627 14.2866 19.3155 13.5329 19.3996L14.5689 23.6361C14.5962 23.7775 14.5223 23.9017 14.395 23.9384L12.2119 24.4689L12.1884 24.4735C12.0705 24.4962 11.9558 24.4083 11.9191 24.2809L10.4443 18.2103L10.4397 18.1867C10.4147 18.0571 10.4909 17.9447 10.6064 17.9102L11.3066 17.7387C11.869 17.4226 12.44 17.2149 13.0056 17.1059C13.5359 17.0038 14.0466 16.9909 14.5402 17.0792C15.2399 16.6511 15.9337 16.383 16.5936 16.2559C18.6675 15.8565 20.4395 16.8716 20.9822 18.9912C21.1768 19.7481 21.4177 20.3005 22.0555 20.6298C22.1375 20.6751 22.3016 20.7657 22.3266 20.8953C22.3379 20.9542 22.328 21.0295 22.2686 21.102C22.2732 21.1256 21.4554 22.273 21.4554 22.273C21.3485 22.4158 21.2515 22.4833 21.1337 22.506C20.9687 22.5378 19.0484 22.5289 18.4598 20.2348C18.1558 18.9735 17.8176 18.5498 17.1277 18.5849L18.1501 22.7508C18.1774 22.8922 18.1035 23.0164 17.9762 23.0531Z"/>
<path d="M60.0468 10.083L59.1582 11.4563C59.0224 11.663 58.8943 11.7614 58.7173 11.7287C58.6819 11.7221 58.6465 11.7156 58.6133 11.6972C56.7834 10.9682 56.3147 9.80764 56.8078 6.81136L55.9316 6.60048C55.804 6.56467 55.7196 6.42703 55.7436 6.29723L56.2475 4.36464C56.2833 4.23703 56.4091 4.15047 56.5507 4.17666L57.2972 4.36354C57.4037 3.91951 57.5168 3.44008 57.6461 2.93923C57.684 2.79982 57.7491 2.57998 58.0559 2.63673L58.1031 2.64546L60.3136 3.16415C60.5121 3.21305 60.5846 3.34851 60.5475 3.54911C60.4323 4.04034 60.3008 4.55298 60.1738 5.04203L60.9792 5.23982C61.109 5.26383 61.1934 5.40147 61.1672 5.54307L60.6633 7.47566C60.6297 7.59147 60.5157 7.68021 60.3859 7.6562L60.3623 7.65184L59.59 7.47239C59.3914 8.54618 59.3824 9.38656 59.8601 9.70679C59.979 9.7898 60.1119 9.86319 60.0879 9.99298C60.0835 10.0166 60.0652 10.0498 60.0468 10.083Z"/>
<path d="M53.8186 11.243L51.4886 11.7825C51.3467 11.8072 51.2121 11.7332 51.1874 11.5914L49.7862 5.50143C49.7615 5.35956 49.8473 5.22282 49.9774 5.20018L51.3364 4.89053C51.9398 4.57843 52.5381 4.37684 53.1292 4.27394C53.5312 4.20397 53.9296 4.18335 54.3105 4.20231C54.496 4.21873 54.5834 4.30096 54.6081 4.44283C54.6163 4.49012 54.6128 4.53946 54.6112 4.60063L54.5585 6.32725C54.5519 6.49893 54.4481 6.60227 54.3062 6.62696C54.2707 6.63313 54.2214 6.62954 54.172 6.62595C53.9726 6.59977 53.7654 6.59929 53.5645 6.63427C53.399 6.66308 53.2376 6.71554 53.0566 6.79575L54.0098 10.9417L54.0139 10.9654C54.0365 11.0954 53.9486 11.2203 53.8186 11.243Z"/>
<path d="M49.1356 10.0668L48.3399 11.4911C48.2246 11.6911 48.1008 11.7947 47.9449 11.7891C47.8249 11.7847 46.9924 11.5626 46.4131 10.9774C45.7778 11.2787 45.1251 11.3993 44.5135 11.3773C42.5108 11.3052 40.8392 9.70799 40.9087 7.77724C40.9605 6.33817 42.0546 4.30023 44.429 4.38573C45.0286 4.40733 45.6115 4.5604 46.0719 4.78111C46.1468 4.69976 46.2561 4.66767 46.4 4.67285L46.4599 4.67501L48.5281 4.9296C48.839 4.96482 48.9174 5.12374 48.9122 5.26764L48.91 5.32761C48.7028 6.41285 48.4974 7.45013 48.4689 8.24162C48.443 8.96115 48.5563 9.48157 48.9327 9.69925C49.0505 9.76353 49.1798 9.84024 49.1755 9.96016C49.1746 9.98414 49.1613 10.0197 49.1356 10.0668ZM45.6534 9.06483C45.6287 8.75173 45.6168 8.41509 45.6302 8.04333C45.6414 7.73153 45.6651 7.40817 45.702 7.04927C45.5667 6.80424 45.249 6.62469 44.9012 6.61217C44.1457 6.58496 43.6996 7.30137 43.6776 7.91298C43.6534 8.58454 44.1004 9.17701 44.8799 9.20508C45.1077 9.21329 45.3733 9.17482 45.6534 9.06483Z"/>
<path d="M35.4423 11.189L33.0559 11.5399C32.9253 11.5591 32.8028 11.468 32.7836 11.3374L31.3572 1.63771C31.3362 1.49524 31.4273 1.37268 31.5579 1.35347L33.9443 1.00255C34.0749 0.983342 34.1974 1.07448 34.2184 1.21695L35.6448 10.9166C35.664 11.0472 35.5729 11.1698 35.4423 11.189Z"/>
<path d="M27.158 11.7267L27.0175 11.6948C24.3609 11.0926 23.438 8.97619 23.8413 7.19733C24.2206 5.52379 25.8006 4.03629 28.4689 4.64118C31.3712 5.29913 30.9137 7.91469 30.8261 8.30089C30.7041 8.83923 30.3809 9.23354 29.6374 9.31107C29.0449 9.37363 28.1497 9.30603 27.5358 9.19148C27.3485 9.14904 27.3086 9.05385 27.2936 8.9028C27.2407 8.48476 27.1908 7.67366 27.2014 7.62684C27.2306 7.49811 27.3375 7.46082 27.4976 7.4602C28.138 7.45772 28.2252 7.45289 28.2624 7.28904C28.2863 7.18372 28.1488 6.75881 27.6573 6.64738C27.0955 6.52004 26.516 6.90545 26.3515 7.63103C26.1631 8.46195 26.5594 9.53615 28.0223 9.86778C28.1042 9.88635 28.1979 9.90758 28.2824 9.91445L28.3058 9.91975C28.4697 9.95689 28.6448 10.1073 28.5997 10.3063C28.5731 10.4233 28.0884 11.1501 27.8227 11.5082C27.6866 11.6743 27.4973 11.8036 27.158 11.7267Z"/>
<path d="M23.2855 9.57714L21.8452 10.9368C21.7289 11.0563 21.6345 11.1199 21.542 11.1456C21.4264 11.1778 21.3063 11.1489 21.1405 11.0455L19.6114 10.026C19.1755 10.6081 18.6785 11.1947 18.3144 11.6322C18.2097 11.7485 18.1217 11.8353 18.0061 11.8674C17.9368 11.8867 17.8494 11.8861 17.7492 11.8392L16.0795 11.1203C15.9234 11.0516 15.8367 10.9636 15.8109 10.8711C15.7884 10.7902 15.8006 10.6996 15.8706 10.593C16.1672 10.1368 16.7387 9.28042 17.2439 8.45486L15.2079 7.09049C15.0865 7.01216 15.0261 6.92931 15.0036 6.84838C14.9714 6.73277 15.035 6.603 15.1544 6.49505L16.6494 5.10777C16.729 5.03581 16.8035 4.99018 16.8844 4.96767C17.0347 4.92587 17.196 4.96822 17.3354 5.06646L18.8054 6.05266L19.6702 4.50434C19.7286 4.40091 19.7934 4.3206 19.8975 4.29166C19.99 4.26594 20.1069 4.28325 20.263 4.35193L22.1119 5.13311C22.2385 5.1851 22.304 5.24161 22.3265 5.32253C22.4358 5.71562 21.4381 7.41299 21.268 7.69696L23.2385 9.00483C23.3451 9.07481 23.4023 9.14609 23.4248 9.22702C23.457 9.34263 23.405 9.46919 23.2855 9.57714Z"/>
<path d="M13.1588 11.5836L10.7797 11.2456L10.7561 11.2411C10.6265 11.216 10.5528 11.0918 10.5661 10.9599L11.3814 5.16526C11.4087 5.02388 11.5235 4.93607 11.6671 4.95164L14.0462 5.2896L14.0698 5.29415C14.1876 5.31694 14.2731 5.44349 14.2504 5.5613L13.4328 11.3677L13.4283 11.3913C13.4055 11.5091 13.2789 11.5946 13.1588 11.5836ZM14.8559 3.44173C14.6713 4.39604 13.7433 5.02322 12.789 4.83863C11.8229 4.65177 11.1957 3.72377 11.3803 2.76946C11.5672 1.80337 12.4952 1.17618 13.4613 1.36305C14.4156 1.54764 15.0428 2.47563 14.8559 3.44173Z"/>
<path d="M5.41575 14.9093L3.05214 15.3461C2.93551 15.3744 2.80512 15.2948 2.77404 15.1665L2.76839 15.1432L1.00292 5.81669C0.983503 5.68557 1.06304 5.55518 1.17967 5.52693L1.20299 5.52128L3.17608 5.15442C3.63237 4.84633 4.12293 4.62872 4.61276 4.51005C6.66539 4.0128 8.86973 5.05923 9.38393 7.18183C9.89813 9.30444 8.71856 11.0101 6.51432 11.5441C6.02448 11.6627 5.52936 11.7086 5.06394 11.6732L5.61583 14.6139C5.63807 14.7567 5.5557 14.8754 5.41575 14.9093ZM4.20663 7.1149L4.6434 9.47851C4.93106 9.54464 5.29188 9.55601 5.61843 9.4769C5.71173 9.4543 6.83135 9.18307 6.52057 7.90018C6.32562 7.09545 5.58355 6.68256 4.76716 6.88033C4.58056 6.92554 4.39077 7.00855 4.20663 7.1149Z"/>
</mask>
<path d="M52.2252 23.2101L49.8747 23.6519C49.7319 23.6706 49.6005 23.5911 49.5817 23.4483L48.4361 17.3052C48.4174 17.1624 48.5088 17.0294 48.6397 17.0122L50.0105 16.7596C50.6264 16.4729 51.2326 16.2965 51.8275 16.2184C52.232 16.1653 52.6309 16.1613 53.0107 16.1961C53.1954 16.2203 53.2793 16.3061 53.298 16.4489C53.3043 16.4965 53.2986 16.5456 53.2945 16.6067L53.1698 18.3296C53.156 18.5008 53.0479 18.5997 52.9052 18.6185C52.8695 18.6232 52.8203 18.6175 52.7712 18.6119C52.573 18.5774 52.366 18.5683 52.1638 18.5948C51.9972 18.6167 51.8338 18.6624 51.6496 18.735L52.4288 22.9171L52.4319 22.9409C52.4491 23.0718 52.3561 23.1929 52.2252 23.2101Z" fill="#B4DCFF"/>
<path d="M44.2716 23.6488L44.1292 23.6271C41.4362 23.2176 40.3634 21.1731 40.6376 19.3698C40.8956 17.6733 42.3644 16.076 45.0693 16.4873C48.0115 16.9347 47.7433 19.5764 47.6837 19.9679C47.6008 20.5136 47.3068 20.9302 46.5708 21.061C45.9843 21.166 45.0865 21.163 44.466 21.0929C44.2762 21.0641 44.2295 20.972 44.2037 20.8224C44.1209 20.4093 44.0127 19.6039 44.02 19.5564C44.0398 19.4259 44.1437 19.381 44.3034 19.3689C44.9419 19.3203 45.0286 19.3092 45.0538 19.1431C45.0701 19.0364 44.9024 18.6225 44.4041 18.5467C43.8347 18.4601 43.2844 18.8862 43.1725 19.6218C43.0444 20.4641 43.517 21.507 45 21.7325C45.083 21.7451 45.1779 21.7595 45.2628 21.7603L45.2865 21.7639C45.4526 21.7892 45.638 21.9266 45.6074 22.1283C45.5893 22.2469 45.1582 23.0067 44.9189 23.3831C44.7951 23.5584 44.6156 23.7011 44.2716 23.6488Z" fill="#B4DCFF"/>
<path d="M40.4778 21.1294L39.7748 22.6672C39.7033 22.8139 39.6213 22.9015 39.5031 22.9224C39.444 22.9329 39.3689 22.9218 39.2897 22.887C38.5646 22.5765 36.9266 21.9278 36.2571 21.6562C36.1778 21.6214 36.0902 21.5394 36.0714 21.4331C36.061 21.374 36.0742 21.3107 36.1207 21.2294L36.8092 20.0231C36.2672 20.4723 35.7758 20.8639 35.5604 21.0238L35.4957 21.0718L35.9593 23.0737C35.9844 23.2155 35.9107 23.3503 35.7689 23.3754L33.4286 23.9232C33.2986 23.9462 33.1637 23.8725 33.1268 23.7328L30.9238 14.1662L30.9196 14.1426C30.8987 14.0244 30.9863 13.8993 31.1024 13.8666L33.4448 13.3306L33.4684 13.3264C33.5984 13.3035 33.7118 13.3931 33.7466 13.521L34.8944 18.4972C35.312 18.0334 37.0771 16.1615 37.597 16.0696C37.6916 16.0529 37.8063 16.0814 37.928 16.2183L39.1908 17.6401C39.2506 17.7027 39.2867 17.7694 39.2993 17.8403C39.3202 17.9585 39.2681 18.0774 39.1388 18.1733C38.8684 18.3674 38.2596 18.8527 37.6196 19.368C38.4927 19.4818 40.4415 20.4412 40.5188 20.8784C40.5313 20.9493 40.5202 21.0244 40.4778 21.1294Z" fill="#B4DCFF"/>
<path d="M30.3819 22.4983L29.409 23.808C29.2689 23.9914 29.1328 24.0782 28.9789 24.0525C28.8605 24.0328 28.0636 23.7051 27.5647 23.05C26.8958 23.2668 26.233 23.3022 25.6293 23.2014C23.6527 22.8715 22.2011 21.072 22.5192 19.1663C22.7563 17.746 24.1042 15.8662 26.4477 16.2574C27.0396 16.3562 27.5978 16.5832 28.0258 16.8615C28.1107 16.7905 28.2231 16.7727 28.3652 16.7965L28.4243 16.8063L30.4424 17.3257C30.7462 17.4007 30.8033 17.5684 30.7796 17.7104L30.7697 17.7696C30.4243 18.8191 30.0867 19.8212 29.9563 20.6024C29.8377 21.3125 29.883 21.8432 30.2281 22.1077C30.3366 22.1866 30.455 22.2793 30.4352 22.3977C30.4313 22.4214 30.4135 22.4549 30.3819 22.4983ZM27.0581 21.0554C27.074 20.7417 27.1056 20.4063 27.1669 20.0394C27.2183 19.7317 27.2834 19.4141 27.3664 19.0629C27.2639 18.8025 26.9719 18.5835 26.6287 18.5262C25.883 18.4017 25.3482 19.0546 25.2475 19.6582C25.1368 20.321 25.5036 20.9662 26.273 21.0946C26.4978 21.1322 26.7661 21.1283 27.0581 21.0554Z" fill="#B4DCFF"/>
<path d="M17.9762 23.0531L15.8072 23.5931L15.7836 23.5977C15.6658 23.6204 15.5511 23.5325 15.5143 23.4051L14.9176 20.9415C14.6294 19.7627 14.2866 19.3155 13.5329 19.3996L14.5689 23.6361C14.5962 23.7775 14.5223 23.9017 14.395 23.9384L12.2119 24.4689L12.1884 24.4735C12.0705 24.4962 11.9558 24.4083 11.9191 24.2809L10.4443 18.2103L10.4397 18.1867C10.4147 18.0571 10.4909 17.9447 10.6064 17.9102L11.3066 17.7387C11.869 17.4226 12.44 17.2149 13.0056 17.1059C13.5359 17.0038 14.0466 16.9909 14.5402 17.0792C15.2399 16.6511 15.9337 16.383 16.5936 16.2559C18.6675 15.8565 20.4395 16.8716 20.9822 18.9912C21.1768 19.7481 21.4177 20.3005 22.0555 20.6298C22.1375 20.6751 22.3016 20.7657 22.3266 20.8953C22.3379 20.9542 22.328 21.0295 22.2686 21.102C22.2732 21.1256 21.4554 22.273 21.4554 22.273C21.3485 22.4158 21.2515 22.4833 21.1337 22.506C20.9687 22.5378 19.0484 22.5289 18.4598 20.2348C18.1558 18.9735 17.8176 18.5498 17.1277 18.5849L18.1501 22.7508C18.1774 22.8922 18.1035 23.0164 17.9762 23.0531Z" fill="#B4DCFF"/>
<path d="M60.0468 10.083L59.1582 11.4563C59.0224 11.663 58.8943 11.7614 58.7173 11.7287C58.6819 11.7221 58.6465 11.7156 58.6133 11.6972C56.7834 10.9682 56.3147 9.80764 56.8078 6.81136L55.9316 6.60048C55.804 6.56467 55.7196 6.42703 55.7436 6.29723L56.2475 4.36464C56.2833 4.23703 56.4091 4.15047 56.5507 4.17666L57.2972 4.36354C57.4037 3.91951 57.5168 3.44008 57.6461 2.93923C57.684 2.79982 57.7491 2.57998 58.0559 2.63673L58.1031 2.64546L60.3136 3.16415C60.5121 3.21305 60.5846 3.34851 60.5475 3.54911C60.4323 4.04034 60.3008 4.55298 60.1738 5.04203L60.9792 5.23982C61.109 5.26383 61.1934 5.40147 61.1672 5.54307L60.6633 7.47566C60.6297 7.59147 60.5157 7.68021 60.3859 7.6562L60.3623 7.65184L59.59 7.47239C59.3914 8.54618 59.3824 9.38656 59.8601 9.70679C59.979 9.7898 60.1119 9.86319 60.0879 9.99298C60.0835 10.0166 60.0652 10.0498 60.0468 10.083Z" fill="#B4DCFF"/>
<path d="M53.8186 11.243L51.4886 11.7825C51.3467 11.8072 51.2121 11.7332 51.1874 11.5914L49.7862 5.50143C49.7615 5.35956 49.8473 5.22282 49.9774 5.20018L51.3364 4.89053C51.9398 4.57843 52.5381 4.37684 53.1292 4.27394C53.5312 4.20397 53.9296 4.18335 54.3105 4.20231C54.496 4.21873 54.5834 4.30096 54.6081 4.44283C54.6163 4.49012 54.6128 4.53946 54.6112 4.60063L54.5585 6.32725C54.5519 6.49893 54.4481 6.60227 54.3062 6.62696C54.2707 6.63313 54.2214 6.62954 54.172 6.62595C53.9726 6.59977 53.7654 6.59929 53.5645 6.63427C53.399 6.66308 53.2376 6.71554 53.0566 6.79575L54.0098 10.9417L54.0139 10.9654C54.0365 11.0954 53.9486 11.2203 53.8186 11.243Z" fill="#B4DCFF"/>
<path d="M49.1356 10.0668L48.3399 11.4911C48.2246 11.6911 48.1008 11.7947 47.9449 11.7891C47.8249 11.7847 46.9924 11.5626 46.4131 10.9774C45.7778 11.2787 45.1251 11.3993 44.5135 11.3773C42.5108 11.3052 40.8392 9.70799 40.9087 7.77724C40.9605 6.33817 42.0546 4.30023 44.429 4.38573C45.0286 4.40733 45.6115 4.5604 46.0719 4.78111C46.1468 4.69976 46.2561 4.66767 46.4 4.67285L46.4599 4.67501L48.5281 4.9296C48.839 4.96482 48.9174 5.12374 48.9122 5.26764L48.91 5.32761C48.7028 6.41285 48.4974 7.45013 48.4689 8.24162C48.443 8.96115 48.5563 9.48157 48.9327 9.69925C49.0505 9.76353 49.1798 9.84024 49.1755 9.96016C49.1746 9.98414 49.1613 10.0197 49.1356 10.0668ZM45.6534 9.06483C45.6287 8.75173 45.6168 8.41509 45.6302 8.04333C45.6414 7.73153 45.6651 7.40817 45.702 7.04927C45.5667 6.80424 45.249 6.62469 44.9012 6.61217C44.1457 6.58496 43.6996 7.30137 43.6776 7.91298C43.6534 8.58454 44.1004 9.17701 44.8799 9.20508C45.1077 9.21329 45.3733 9.17482 45.6534 9.06483Z" fill="#B4DCFF"/>
<path d="M35.4423 11.189L33.0559 11.5399C32.9253 11.5591 32.8028 11.468 32.7836 11.3374L31.3572 1.63771C31.3362 1.49524 31.4273 1.37268 31.5579 1.35347L33.9443 1.00255C34.0749 0.983342 34.1974 1.07448 34.2184 1.21695L35.6448 10.9166C35.664 11.0472 35.5729 11.1698 35.4423 11.189Z" fill="#B4DCFF"/>
<path d="M27.158 11.7267L27.0175 11.6948C24.3609 11.0926 23.438 8.97619 23.8413 7.19733C24.2206 5.52379 25.8006 4.03629 28.4689 4.64118C31.3712 5.29913 30.9137 7.91469 30.8261 8.30089C30.7041 8.83923 30.3809 9.23354 29.6374 9.31107C29.0449 9.37363 28.1497 9.30603 27.5358 9.19148C27.3485 9.14904 27.3086 9.05385 27.2936 8.9028C27.2407 8.48476 27.1908 7.67366 27.2014 7.62684C27.2306 7.49811 27.3375 7.46082 27.4976 7.4602C28.138 7.45772 28.2252 7.45289 28.2624 7.28904C28.2863 7.18372 28.1488 6.75881 27.6573 6.64738C27.0955 6.52004 26.516 6.90545 26.3515 7.63103C26.1631 8.46195 26.5594 9.53615 28.0223 9.86778C28.1042 9.88635 28.1979 9.90758 28.2824 9.91445L28.3058 9.91975C28.4697 9.95689 28.6448 10.1073 28.5997 10.3063C28.5731 10.4233 28.0884 11.1501 27.8227 11.5082C27.6866 11.6743 27.4973 11.8036 27.158 11.7267Z" fill="#B4DCFF"/>
<path d="M23.2855 9.57714L21.8452 10.9368C21.7289 11.0563 21.6345 11.1199 21.542 11.1456C21.4264 11.1778 21.3063 11.1489 21.1405 11.0455L19.6114 10.026C19.1755 10.6081 18.6785 11.1947 18.3144 11.6322C18.2097 11.7485 18.1217 11.8353 18.0061 11.8674C17.9368 11.8867 17.8494 11.8861 17.7492 11.8392L16.0795 11.1203C15.9234 11.0516 15.8367 10.9636 15.8109 10.8711C15.7884 10.7902 15.8006 10.6996 15.8706 10.593C16.1672 10.1368 16.7387 9.28042 17.2439 8.45486L15.2079 7.09049C15.0865 7.01216 15.0261 6.92931 15.0036 6.84838C14.9714 6.73277 15.035 6.603 15.1544 6.49505L16.6494 5.10777C16.729 5.03581 16.8035 4.99018 16.8844 4.96767C17.0347 4.92587 17.196 4.96822 17.3354 5.06646L18.8054 6.05266L19.6702 4.50434C19.7286 4.40091 19.7934 4.3206 19.8975 4.29166C19.99 4.26594 20.1069 4.28325 20.263 4.35193L22.1119 5.13311C22.2385 5.1851 22.304 5.24161 22.3265 5.32253C22.4358 5.71562 21.4381 7.41299 21.268 7.69696L23.2385 9.00483C23.3451 9.07481 23.4023 9.14609 23.4248 9.22702C23.457 9.34263 23.405 9.46919 23.2855 9.57714Z" fill="#B4DCFF"/>
<path d="M13.1588 11.5836L10.7797 11.2456L10.7561 11.2411C10.6265 11.216 10.5528 11.0918 10.5661 10.9599L11.3814 5.16526C11.4087 5.02388 11.5235 4.93607 11.6671 4.95164L14.0462 5.2896L14.0698 5.29415C14.1876 5.31694 14.2731 5.44349 14.2504 5.5613L13.4328 11.3677L13.4283 11.3913C13.4055 11.5091 13.2789 11.5946 13.1588 11.5836ZM14.8559 3.44173C14.6713 4.39604 13.7433 5.02322 12.789 4.83863C11.8229 4.65177 11.1957 3.72377 11.3803 2.76946C11.5672 1.80337 12.4952 1.17618 13.4613 1.36305C14.4156 1.54764 15.0428 2.47563 14.8559 3.44173Z" fill="#B4DCFF"/>
<path d="M5.41575 14.9093L3.05214 15.3461C2.93551 15.3744 2.80512 15.2948 2.77404 15.1665L2.76839 15.1432L1.00292 5.81669C0.983503 5.68557 1.06304 5.55518 1.17967 5.52693L1.20299 5.52128L3.17608 5.15442C3.63237 4.84633 4.12293 4.62872 4.61276 4.51005C6.66539 4.0128 8.86973 5.05923 9.38393 7.18183C9.89813 9.30444 8.71856 11.0101 6.51432 11.5441C6.02448 11.6627 5.52936 11.7086 5.06394 11.6732L5.61583 14.6139C5.63807 14.7567 5.5557 14.8754 5.41575 14.9093ZM4.20663 7.1149L4.6434 9.47851C4.93106 9.54464 5.29188 9.55601 5.61843 9.4769C5.71173 9.4543 6.83135 9.18307 6.52057 7.90018C6.32562 7.09545 5.58355 6.68256 4.76716 6.88033C4.58056 6.92554 4.39077 7.00855 4.20663 7.1149Z" fill="#B4DCFF"/>
<path d="M52.2252 23.2101L49.8747 23.6519C49.7319 23.6706 49.6005 23.5911 49.5817 23.4483L48.4361 17.3052C48.4174 17.1624 48.5088 17.0294 48.6397 17.0122L50.0105 16.7596C50.6264 16.4729 51.2326 16.2965 51.8275 16.2184C52.232 16.1653 52.6309 16.1613 53.0107 16.1961C53.1954 16.2203 53.2793 16.3061 53.298 16.4489C53.3043 16.4965 53.2986 16.5456 53.2945 16.6067L53.1698 18.3296C53.156 18.5008 53.0479 18.5997 52.9052 18.6185C52.8695 18.6232 52.8203 18.6175 52.7712 18.6119C52.573 18.5774 52.366 18.5683 52.1638 18.5948C51.9972 18.6167 51.8338 18.6624 51.6496 18.735L52.4288 22.9171L52.4319 22.9409C52.4491 23.0718 52.3561 23.1929 52.2252 23.2101Z" stroke="#76BFFF" stroke-opacity="0.1" stroke-width="2" mask="url(#path-1-outside-1_1_41)"/>
<path d="M44.2716 23.6488L44.1292 23.6271C41.4362 23.2176 40.3634 21.1731 40.6376 19.3698C40.8956 17.6733 42.3644 16.076 45.0693 16.4873C48.0115 16.9347 47.7433 19.5764 47.6837 19.9679C47.6008 20.5136 47.3068 20.9302 46.5708 21.061C45.9843 21.166 45.0865 21.163 44.466 21.0929C44.2762 21.0641 44.2295 20.972 44.2037 20.8224C44.1209 20.4093 44.0127 19.6039 44.02 19.5564C44.0398 19.4259 44.1437 19.381 44.3034 19.3689C44.9419 19.3203 45.0286 19.3092 45.0538 19.1431C45.0701 19.0364 44.9024 18.6225 44.4041 18.5467C43.8347 18.4601 43.2844 18.8862 43.1725 19.6218C43.0444 20.4641 43.517 21.507 45 21.7325C45.083 21.7451 45.1779 21.7595 45.2628 21.7603L45.2865 21.7639C45.4526 21.7892 45.638 21.9266 45.6074 22.1283C45.5893 22.2469 45.1582 23.0067 44.9189 23.3831C44.7951 23.5584 44.6156 23.7011 44.2716 23.6488Z" stroke="#76BFFF" stroke-opacity="0.1" stroke-width="2" mask="url(#path-1-outside-1_1_41)"/>
<path d="M40.4778 21.1294L39.7748 22.6672C39.7033 22.8139 39.6213 22.9015 39.5031 22.9224C39.444 22.9329 39.3689 22.9218 39.2897 22.887C38.5646 22.5765 36.9266 21.9278 36.2571 21.6562C36.1778 21.6214 36.0902 21.5394 36.0714 21.4331C36.061 21.374 36.0742 21.3107 36.1207 21.2294L36.8092 20.0231C36.2672 20.4723 35.7758 20.8639 35.5604 21.0238L35.4957 21.0718L35.9593 23.0737C35.9844 23.2155 35.9107 23.3503 35.7689 23.3754L33.4286 23.9232C33.2986 23.9462 33.1637 23.8725 33.1268 23.7328L30.9238 14.1662L30.9196 14.1426C30.8987 14.0244 30.9863 13.8993 31.1024 13.8666L33.4448 13.3306L33.4684 13.3264C33.5984 13.3035 33.7118 13.3931 33.7466 13.521L34.8944 18.4972C35.312 18.0334 37.0771 16.1615 37.597 16.0696C37.6916 16.0529 37.8063 16.0814 37.928 16.2183L39.1908 17.6401C39.2506 17.7027 39.2867 17.7694 39.2993 17.8403C39.3202 17.9585 39.2681 18.0774 39.1388 18.1733C38.8684 18.3674 38.2596 18.8527 37.6196 19.368C38.4927 19.4818 40.4415 20.4412 40.5188 20.8784C40.5313 20.9493 40.5202 21.0244 40.4778 21.1294Z" stroke="#76BFFF" stroke-opacity="0.1" stroke-width="2" mask="url(#path-1-outside-1_1_41)"/>
<path d="M30.3819 22.4983L29.409 23.808C29.2689 23.9914 29.1328 24.0782 28.9789 24.0525C28.8605 24.0328 28.0636 23.7051 27.5647 23.05C26.8958 23.2668 26.233 23.3022 25.6293 23.2014C23.6527 22.8715 22.2011 21.072 22.5192 19.1663C22.7563 17.746 24.1042 15.8662 26.4477 16.2574C27.0396 16.3562 27.5978 16.5832 28.0258 16.8615C28.1107 16.7905 28.2231 16.7727 28.3652 16.7965L28.4243 16.8063L30.4424 17.3257C30.7462 17.4007 30.8033 17.5684 30.7796 17.7104L30.7697 17.7696C30.4243 18.8191 30.0867 19.8212 29.9563 20.6024C29.8377 21.3125 29.883 21.8432 30.2281 22.1077C30.3366 22.1866 30.455 22.2793 30.4352 22.3977C30.4313 22.4214 30.4135 22.4549 30.3819 22.4983ZM27.0581 21.0554C27.074 20.7417 27.1056 20.4063 27.1669 20.0394C27.2183 19.7317 27.2834 19.4141 27.3664 19.0629C27.2639 18.8025 26.9719 18.5835 26.6287 18.5262C25.883 18.4017 25.3482 19.0546 25.2475 19.6582C25.1368 20.321 25.5036 20.9662 26.273 21.0946C26.4978 21.1322 26.7661 21.1283 27.0581 21.0554Z" stroke="#76BFFF" stroke-opacity="0.1" stroke-width="2" mask="url(#path-1-outside-1_1_41)"/>
<path d="M17.9762 23.0531L15.8072 23.5931L15.7836 23.5977C15.6658 23.6204 15.5511 23.5325 15.5143 23.4051L14.9176 20.9415C14.6294 19.7627 14.2866 19.3155 13.5329 19.3996L14.5689 23.6361C14.5962 23.7775 14.5223 23.9017 14.395 23.9384L12.2119 24.4689L12.1884 24.4735C12.0705 24.4962 11.9558 24.4083 11.9191 24.2809L10.4443 18.2103L10.4397 18.1867C10.4147 18.0571 10.4909 17.9447 10.6064 17.9102L11.3066 17.7387C11.869 17.4226 12.44 17.2149 13.0056 17.1059C13.5359 17.0038 14.0466 16.9909 14.5402 17.0792C15.2399 16.6511 15.9337 16.383 16.5936 16.2559C18.6675 15.8565 20.4395 16.8716 20.9822 18.9912C21.1768 19.7481 21.4177 20.3005 22.0555 20.6298C22.1375 20.6751 22.3016 20.7657 22.3266 20.8953C22.3379 20.9542 22.328 21.0295 22.2686 21.102C22.2732 21.1256 21.4554 22.273 21.4554 22.273C21.3485 22.4158 21.2515 22.4833 21.1337 22.506C20.9687 22.5378 19.0484 22.5289 18.4598 20.2348C18.1558 18.9735 17.8176 18.5498 17.1277 18.5849L18.1501 22.7508C18.1774 22.8922 18.1035 23.0164 17.9762 23.0531Z" stroke="#76BFFF" stroke-opacity="0.1" stroke-width="2" mask="url(#path-1-outside-1_1_41)"/>
<path d="M60.0468 10.083L59.1582 11.4563C59.0224 11.663 58.8943 11.7614 58.7173 11.7287C58.6819 11.7221 58.6465 11.7156 58.6133 11.6972C56.7834 10.9682 56.3147 9.80764 56.8078 6.81136L55.9316 6.60048C55.804 6.56467 55.7196 6.42703 55.7436 6.29723L56.2475 4.36464C56.2833 4.23703 56.4091 4.15047 56.5507 4.17666L57.2972 4.36354C57.4037 3.91951 57.5168 3.44008 57.6461 2.93923C57.684 2.79982 57.7491 2.57998 58.0559 2.63673L58.1031 2.64546L60.3136 3.16415C60.5121 3.21305 60.5846 3.34851 60.5475 3.54911C60.4323 4.04034 60.3008 4.55298 60.1738 5.04203L60.9792 5.23982C61.109 5.26383 61.1934 5.40147 61.1672 5.54307L60.6633 7.47566C60.6297 7.59147 60.5157 7.68021 60.3859 7.6562L60.3623 7.65184L59.59 7.47239C59.3914 8.54618 59.3824 9.38656 59.8601 9.70679C59.979 9.7898 60.1119 9.86319 60.0879 9.99298C60.0835 10.0166 60.0652 10.0498 60.0468 10.083Z" stroke="#76BFFF" stroke-opacity="0.1" stroke-width="2" mask="url(#path-1-outside-1_1_41)"/>
<path d="M53.8186 11.243L51.4886 11.7825C51.3467 11.8072 51.2121 11.7332 51.1874 11.5914L49.7862 5.50143C49.7615 5.35956 49.8473 5.22282 49.9774 5.20018L51.3364 4.89053C51.9398 4.57843 52.5381 4.37684 53.1292 4.27394C53.5312 4.20397 53.9296 4.18335 54.3105 4.20231C54.496 4.21873 54.5834 4.30096 54.6081 4.44283C54.6163 4.49012 54.6128 4.53946 54.6112 4.60063L54.5585 6.32725C54.5519 6.49893 54.4481 6.60227 54.3062 6.62696C54.2707 6.63313 54.2214 6.62954 54.172 6.62595C53.9726 6.59977 53.7654 6.59929 53.5645 6.63427C53.399 6.66308 53.2376 6.71554 53.0566 6.79575L54.0098 10.9417L54.0139 10.9654C54.0365 11.0954 53.9486 11.2203 53.8186 11.243Z" stroke="#76BFFF" stroke-opacity="0.1" stroke-width="2" mask="url(#path-1-outside-1_1_41)"/>
<path d="M49.1356 10.0668L48.3399 11.4911C48.2246 11.6911 48.1008 11.7947 47.9449 11.7891C47.8249 11.7847 46.9924 11.5626 46.4131 10.9774C45.7778 11.2787 45.1251 11.3993 44.5135 11.3773C42.5108 11.3052 40.8392 9.70799 40.9087 7.77724C40.9605 6.33817 42.0546 4.30023 44.429 4.38573C45.0286 4.40733 45.6115 4.5604 46.0719 4.78111C46.1468 4.69976 46.2561 4.66767 46.4 4.67285L46.4599 4.67501L48.5281 4.9296C48.839 4.96482 48.9174 5.12374 48.9122 5.26764L48.91 5.32761C48.7028 6.41285 48.4974 7.45013 48.4689 8.24162C48.443 8.96115 48.5563 9.48157 48.9327 9.69925C49.0505 9.76353 49.1798 9.84024 49.1755 9.96016C49.1746 9.98414 49.1613 10.0197 49.1356 10.0668ZM45.6534 9.06483C45.6287 8.75173 45.6168 8.41509 45.6302 8.04333C45.6414 7.73153 45.6651 7.40817 45.702 7.04927C45.5667 6.80424 45.249 6.62469 44.9012 6.61217C44.1457 6.58496 43.6996 7.30137 43.6776 7.91298C43.6534 8.58454 44.1004 9.17701 44.8799 9.20508C45.1077 9.21329 45.3733 9.17482 45.6534 9.06483Z" stroke="#76BFFF" stroke-opacity="0.1" stroke-width="2" mask="url(#path-1-outside-1_1_41)"/>
<path d="M35.4423 11.189L33.0559 11.5399C32.9253 11.5591 32.8028 11.468 32.7836 11.3374L31.3572 1.63771C31.3362 1.49524 31.4273 1.37268 31.5579 1.35347L33.9443 1.00255C34.0749 0.983342 34.1974 1.07448 34.2184 1.21695L35.6448 10.9166C35.664 11.0472 35.5729 11.1698 35.4423 11.189Z" stroke="#76BFFF" stroke-opacity="0.1" stroke-width="2" mask="url(#path-1-outside-1_1_41)"/>
<path d="M27.158 11.7267L27.0175 11.6948C24.3609 11.0926 23.438 8.97619 23.8413 7.19733C24.2206 5.52379 25.8006 4.03629 28.4689 4.64118C31.3712 5.29913 30.9137 7.91469 30.8261 8.30089C30.7041 8.83923 30.3809 9.23354 29.6374 9.31107C29.0449 9.37363 28.1497 9.30603 27.5358 9.19148C27.3485 9.14904 27.3086 9.05385 27.2936 8.9028C27.2407 8.48476 27.1908 7.67366 27.2014 7.62684C27.2306 7.49811 27.3375 7.46082 27.4976 7.4602C28.138 7.45772 28.2252 7.45289 28.2624 7.28904C28.2863 7.18372 28.1488 6.75881 27.6573 6.64738C27.0955 6.52004 26.516 6.90545 26.3515 7.63103C26.1631 8.46195 26.5594 9.53615 28.0223 9.86778C28.1042 9.88635 28.1979 9.90758 28.2824 9.91445L28.3058 9.91975C28.4697 9.95689 28.6448 10.1073 28.5997 10.3063C28.5731 10.4233 28.0884 11.1501 27.8227 11.5082C27.6866 11.6743 27.4973 11.8036 27.158 11.7267Z" stroke="#76BFFF" stroke-opacity="0.1" stroke-width="2" mask="url(#path-1-outside-1_1_41)"/>
<path d="M23.2855 9.57714L21.8452 10.9368C21.7289 11.0563 21.6345 11.1199 21.542 11.1456C21.4264 11.1778 21.3063 11.1489 21.1405 11.0455L19.6114 10.026C19.1755 10.6081 18.6785 11.1947 18.3144 11.6322C18.2097 11.7485 18.1217 11.8353 18.0061 11.8674C17.9368 11.8867 17.8494 11.8861 17.7492 11.8392L16.0795 11.1203C15.9234 11.0516 15.8367 10.9636 15.8109 10.8711C15.7884 10.7902 15.8006 10.6996 15.8706 10.593C16.1672 10.1368 16.7387 9.28042 17.2439 8.45486L15.2079 7.09049C15.0865 7.01216 15.0261 6.92931 15.0036 6.84838C14.9714 6.73277 15.035 6.603 15.1544 6.49505L16.6494 5.10777C16.729 5.03581 16.8035 4.99018 16.8844 4.96767C17.0347 4.92587 17.196 4.96822 17.3354 5.06646L18.8054 6.05266L19.6702 4.50434C19.7286 4.40091 19.7934 4.3206 19.8975 4.29166C19.99 4.26594 20.1069 4.28325 20.263 4.35193L22.1119 5.13311C22.2385 5.1851 22.304 5.24161 22.3265 5.32253C22.4358 5.71562 21.4381 7.41299 21.268 7.69696L23.2385 9.00483C23.3451 9.07481 23.4023 9.14609 23.4248 9.22702C23.457 9.34263 23.405 9.46919 23.2855 9.57714Z" stroke="#76BFFF" stroke-opacity="0.1" stroke-width="2" mask="url(#path-1-outside-1_1_41)"/>
<path d="M13.1588 11.5836L10.7797 11.2456L10.7561 11.2411C10.6265 11.216 10.5528 11.0918 10.5661 10.9599L11.3814 5.16526C11.4087 5.02388 11.5235 4.93607 11.6671 4.95164L14.0462 5.2896L14.0698 5.29415C14.1876 5.31694 14.2731 5.44349 14.2504 5.5613L13.4328 11.3677L13.4283 11.3913C13.4055 11.5091 13.2789 11.5946 13.1588 11.5836ZM14.8559 3.44173C14.6713 4.39604 13.7433 5.02322 12.789 4.83863C11.8229 4.65177 11.1957 3.72377 11.3803 2.76946C11.5672 1.80337 12.4952 1.17618 13.4613 1.36305C14.4156 1.54764 15.0428 2.47563 14.8559 3.44173Z" stroke="#76BFFF" stroke-opacity="0.1" stroke-width="2" mask="url(#path-1-outside-1_1_41)"/>
<path d="M5.41575 14.9093L3.05214 15.3461C2.93551 15.3744 2.80512 15.2948 2.77404 15.1665L2.76839 15.1432L1.00292 5.81669C0.983503 5.68557 1.06304 5.55518 1.17967 5.52693L1.20299 5.52128L3.17608 5.15442C3.63237 4.84633 4.12293 4.62872 4.61276 4.51005C6.66539 4.0128 8.86973 5.05923 9.38393 7.18183C9.89813 9.30444 8.71856 11.0101 6.51432 11.5441C6.02448 11.6627 5.52936 11.7086 5.06394 11.6732L5.61583 14.6139C5.63807 14.7567 5.5557 14.8754 5.41575 14.9093ZM4.20663 7.1149L4.6434 9.47851C4.93106 9.54464 5.29188 9.55601 5.61843 9.4769C5.71173 9.4543 6.83135 9.18307 6.52057 7.90018C6.32562 7.09545 5.58355 6.68256 4.76716 6.88033C4.58056 6.92554 4.39077 7.00855 4.20663 7.1149Z" stroke="#76BFFF" stroke-opacity="0.1" stroke-width="2" mask="url(#path-1-outside-1_1_41)"/>
<mask id="mask0_1_41" style="mask-type:alpha" maskUnits="userSpaceOnUse" x="0" y="-1" width="63" height="27">
<mask id="path-2-outside-2_1_41" maskUnits="userSpaceOnUse" x="0" y="-1" width="63" height="27" fill="black">
<rect fill="white" y="-1" width="63" height="27"/>
<path d="M52.2252 23.2101L49.8747 23.6519C49.7319 23.6706 49.6005 23.5911 49.5817 23.4483L48.4361 17.3052C48.4174 17.1624 48.5088 17.0294 48.6397 17.0122L50.0105 16.7596C50.6264 16.4729 51.2326 16.2965 51.8275 16.2184C52.232 16.1653 52.6309 16.1613 53.0107 16.1961C53.1954 16.2203 53.2793 16.3061 53.298 16.4489C53.3043 16.4965 53.2986 16.5456 53.2945 16.6067L53.1698 18.3296C53.156 18.5008 53.0479 18.5997 52.9052 18.6185C52.8695 18.6232 52.8203 18.6175 52.7712 18.6119C52.573 18.5774 52.366 18.5683 52.1638 18.5948C51.9972 18.6167 51.8338 18.6624 51.6496 18.735L52.4288 22.9171L52.4319 22.9409C52.4491 23.0718 52.3561 23.1929 52.2252 23.2101Z"/>
<path d="M44.2716 23.6488L44.1292 23.6271C41.4362 23.2176 40.3634 21.1731 40.6376 19.3698C40.8956 17.6733 42.3644 16.076 45.0693 16.4873C48.0115 16.9347 47.7433 19.5764 47.6837 19.9679C47.6008 20.5136 47.3068 20.9302 46.5708 21.061C45.9843 21.166 45.0865 21.163 44.466 21.0929C44.2762 21.0641 44.2295 20.972 44.2037 20.8224C44.1209 20.4093 44.0127 19.6039 44.02 19.5564C44.0398 19.4259 44.1437 19.381 44.3034 19.3689C44.9419 19.3203 45.0286 19.3092 45.0538 19.1431C45.0701 19.0364 44.9024 18.6225 44.4041 18.5467C43.8347 18.4601 43.2844 18.8862 43.1725 19.6218C43.0444 20.4641 43.517 21.507 45 21.7325C45.083 21.7451 45.1779 21.7595 45.2628 21.7603L45.2865 21.7639C45.4526 21.7892 45.638 21.9266 45.6074 22.1283C45.5893 22.2469 45.1582 23.0067 44.9189 23.3831C44.7951 23.5584 44.6156 23.7011 44.2716 23.6488Z"/>
<path d="M40.4778 21.1294L39.7748 22.6672C39.7033 22.8139 39.6213 22.9015 39.5031 22.9224C39.444 22.9329 39.3689 22.9218 39.2897 22.887C38.5646 22.5765 36.9266 21.9278 36.2571 21.6562C36.1778 21.6214 36.0902 21.5394 36.0714 21.4331C36.061 21.374 36.0742 21.3107 36.1207 21.2294L36.8092 20.0231C36.2672 20.4723 35.7758 20.8639 35.5604 21.0238L35.4957 21.0718L35.9593 23.0737C35.9844 23.2155 35.9107 23.3503 35.7689 23.3754L33.4286 23.9232C33.2986 23.9462 33.1637 23.8725 33.1268 23.7328L30.9238 14.1662L30.9196 14.1426C30.8987 14.0244 30.9863 13.8993 31.1024 13.8666L33.4448 13.3306L33.4684 13.3264C33.5984 13.3035 33.7118 13.3931 33.7466 13.521L34.8944 18.4972C35.312 18.0334 37.0771 16.1615 37.597 16.0696C37.6916 16.0529 37.8063 16.0814 37.928 16.2183L39.1908 17.6401C39.2506 17.7027 39.2867 17.7694 39.2993 17.8403C39.3202 17.9585 39.2681 18.0774 39.1388 18.1733C38.8684 18.3674 38.2596 18.8527 37.6196 19.368C38.4927 19.4818 40.4415 20.4412 40.5188 20.8784C40.5313 20.9493 40.5202 21.0244 40.4778 21.1294Z"/>
<path d="M30.3819 22.4983L29.409 23.808C29.2689 23.9914 29.1328 24.0782 28.9789 24.0525C28.8605 24.0328 28.0636 23.7051 27.5647 23.05C26.8958 23.2668 26.233 23.3022 25.6293 23.2014C23.6527 22.8715 22.2011 21.072 22.5192 19.1663C22.7563 17.746 24.1042 15.8662 26.4477 16.2574C27.0396 16.3562 27.5978 16.5832 28.0258 16.8615C28.1107 16.7905 28.2231 16.7727 28.3652 16.7965L28.4243 16.8063L30.4424 17.3257C30.7462 17.4007 30.8033 17.5684 30.7796 17.7104L30.7697 17.7696C30.4243 18.8191 30.0867 19.8212 29.9563 20.6024C29.8377 21.3125 29.883 21.8432 30.2281 22.1077C30.3366 22.1866 30.455 22.2793 30.4352 22.3977C30.4313 22.4214 30.4135 22.4549 30.3819 22.4983ZM27.0581 21.0554C27.074 20.7417 27.1056 20.4063 27.1669 20.0394C27.2183 19.7317 27.2834 19.4141 27.3664 19.0629C27.2639 18.8025 26.9719 18.5835 26.6287 18.5262C25.883 18.4017 25.3482 19.0546 25.2475 19.6582C25.1368 20.321 25.5036 20.9662 26.273 21.0946C26.4978 21.1322 26.7661 21.1283 27.0581 21.0554Z"/>
<path d="M17.9762 23.0531L15.8072 23.5931L15.7836 23.5977C15.6658 23.6204 15.5511 23.5325 15.5143 23.4051L14.9176 20.9415C14.6294 19.7627 14.2866 19.3155 13.5329 19.3996L14.5689 23.6361C14.5962 23.7775 14.5223 23.9017 14.395 23.9384L12.2119 24.4689L12.1884 24.4735C12.0705 24.4962 11.9558 24.4083 11.9191 24.2809L10.4443 18.2103L10.4397 18.1867C10.4147 18.0571 10.4909 17.9447 10.6064 17.9102L11.3066 17.7387C11.869 17.4226 12.44 17.2149 13.0056 17.1059C13.5359 17.0038 14.0466 16.9909 14.5402 17.0792C15.2399 16.6511 15.9337 16.383 16.5936 16.2559C18.6675 15.8565 20.4395 16.8716 20.9822 18.9912C21.1768 19.7481 21.4177 20.3005 22.0555 20.6298C22.1375 20.6751 22.3016 20.7657 22.3266 20.8953C22.3379 20.9542 22.328 21.0295 22.2686 21.102C22.2732 21.1256 21.4554 22.273 21.4554 22.273C21.3485 22.4158 21.2515 22.4833 21.1337 22.506C20.9687 22.5378 19.0484 22.5289 18.4598 20.2348C18.1558 18.9735 17.8176 18.5498 17.1277 18.5849L18.1501 22.7508C18.1774 22.8922 18.1035 23.0164 17.9762 23.0531Z"/>
<path d="M60.0468 10.083L59.1582 11.4563C59.0224 11.663 58.8943 11.7614 58.7173 11.7287C58.6819 11.7221 58.6465 11.7156 58.6133 11.6972C56.7834 10.9682 56.3147 9.80764 56.8078 6.81136L55.9316 6.60048C55.804 6.56467 55.7196 6.42703 55.7436 6.29723L56.2475 4.36464C56.2833 4.23703 56.4091 4.15047 56.5507 4.17666L57.2972 4.36354C57.4037 3.91951 57.5168 3.44008 57.6461 2.93923C57.684 2.79982 57.7491 2.57998 58.0559 2.63673L58.1031 2.64546L60.3136 3.16415C60.5121 3.21305 60.5846 3.34851 60.5475 3.54911C60.4323 4.04034 60.3008 4.55298 60.1738 5.04203L60.9792 5.23982C61.109 5.26383 61.1934 5.40147 61.1672 5.54307L60.6633 7.47566C60.6297 7.59147 60.5157 7.68021 60.3859 7.6562L60.3623 7.65184L59.59 7.47239C59.3914 8.54618 59.3824 9.38656 59.8601 9.70679C59.979 9.7898 60.1119 9.86319 60.0879 9.99298C60.0835 10.0166 60.0652 10.0498 60.0468 10.083Z"/>
<path d="M53.8186 11.243L51.4886 11.7825C51.3467 11.8072 51.2121 11.7332 51.1874 11.5914L49.7862 5.50143C49.7615 5.35956 49.8473 5.22282 49.9774 5.20018L51.3364 4.89053C51.9398 4.57843 52.5381 4.37684 53.1292 4.27394C53.5312 4.20397 53.9296 4.18335 54.3105 4.20231C54.496 4.21873 54.5834 4.30096 54.6081 4.44283C54.6163 4.49012 54.6128 4.53946 54.6112 4.60063L54.5585 6.32725C54.5519 6.49893 54.4481 6.60227 54.3062 6.62696C54.2707 6.63313 54.2214 6.62954 54.172 6.62595C53.9726 6.59977 53.7654 6.59929 53.5645 6.63427C53.399 6.66308 53.2376 6.71554 53.0566 6.79575L54.0098 10.9417L54.0139 10.9654C54.0365 11.0954 53.9486 11.2203 53.8186 11.243Z"/>
<path d="M49.1356 10.0668L48.3399 11.4911C48.2246 11.6911 48.1008 11.7947 47.9449 11.7891C47.8249 11.7847 46.9924 11.5626 46.4131 10.9774C45.7778 11.2787 45.1251 11.3993 44.5135 11.3773C42.5108 11.3052 40.8392 9.70799 40.9087 7.77724C40.9605 6.33817 42.0546 4.30023 44.429 4.38573C45.0286 4.40733 45.6115 4.5604 46.0719 4.78111C46.1468 4.69976 46.2561 4.66767 46.4 4.67285L46.4599 4.67501L48.5281 4.9296C48.839 4.96482 48.9174 5.12374 48.9122 5.26764L48.91 5.32761C48.7028 6.41285 48.4974 7.45013 48.4689 8.24162C48.443 8.96115 48.5563 9.48157 48.9327 9.69925C49.0505 9.76353 49.1798 9.84024 49.1755 9.96016C49.1746 9.98414 49.1613 10.0197 49.1356 10.0668ZM45.6534 9.06483C45.6287 8.75173 45.6168 8.41509 45.6302 8.04333C45.6414 7.73153 45.6651 7.40817 45.702 7.04927C45.5667 6.80424 45.249 6.62469 44.9012 6.61217C44.1457 6.58496 43.6996 7.30137 43.6776 7.91298C43.6534 8.58454 44.1004 9.17701 44.8799 9.20508C45.1077 9.21329 45.3733 9.17482 45.6534 9.06483Z"/>
<path d="M35.4423 11.189L33.0559 11.5399C32.9253 11.5591 32.8028 11.468 32.7836 11.3374L31.3572 1.63771C31.3362 1.49524 31.4273 1.37268 31.5579 1.35347L33.9443 1.00255C34.0749 0.983342 34.1974 1.07448 34.2184 1.21695L35.6448 10.9166C35.664 11.0472 35.5729 11.1698 35.4423 11.189Z"/>
<path d="M27.158 11.7267L27.0175 11.6948C24.3609 11.0926 23.438 8.97619 23.8413 7.19733C24.2206 5.52379 25.8006 4.03629 28.4689 4.64118C31.3712 5.29913 30.9137 7.91469 30.8261 8.30089C30.7041 8.83923 30.3809 9.23354 29.6374 9.31107C29.0449 9.37363 28.1497 9.30603 27.5358 9.19148C27.3485 9.14904 27.3086 9.05385 27.2936 8.9028C27.2407 8.48476 27.1908 7.67366 27.2014 7.62684C27.2306 7.49811 27.3375 7.46082 27.4976 7.4602C28.138 7.45772 28.2252 7.45289 28.2624 7.28904C28.2863 7.18372 28.1488 6.75881 27.6573 6.64738C27.0955 6.52004 26.516 6.90545 26.3515 7.63103C26.1631 8.46195 26.5594 9.53615 28.0223 9.86778C28.1042 9.88635 28.1979 9.90758 28.2824 9.91445L28.3058 9.91975C28.4697 9.95689 28.6448 10.1073 28.5997 10.3063C28.5731 10.4233 28.0884 11.1501 27.8227 11.5082C27.6866 11.6743 27.4973 11.8036 27.158 11.7267Z"/>
<path d="M23.2855 9.57714L21.8452 10.9368C21.7289 11.0563 21.6345 11.1199 21.542 11.1456C21.4264 11.1778 21.3063 11.1489 21.1405 11.0455L19.6114 10.026C19.1755 10.6081 18.6785 11.1947 18.3144 11.6322C18.2097 11.7485 18.1217 11.8353 18.0061 11.8674C17.9368 11.8867 17.8494 11.8861 17.7492 11.8392L16.0795 11.1203C15.9234 11.0516 15.8367 10.9636 15.8109 10.8711C15.7884 10.7902 15.8006 10.6996 15.8706 10.593C16.1672 10.1368 16.7387 9.28042 17.2439 8.45486L15.2079 7.09049C15.0865 7.01216 15.0261 6.92931 15.0036 6.84838C14.9714 6.73277 15.035 6.603 15.1544 6.49505L16.6494 5.10777C16.729 5.03581 16.8035 4.99018 16.8844 4.96767C17.0347 4.92587 17.196 4.96822 17.3354 5.06646L18.8054 6.05266L19.6702 4.50434C19.7286 4.40091 19.7934 4.3206 19.8975 4.29166C19.99 4.26594 20.1069 4.28325 20.263 4.35193L22.1119 5.13311C22.2385 5.1851 22.304 5.24161 22.3265 5.32253C22.4358 5.71562 21.4381 7.41299 21.268 7.69696L23.2385 9.00483C23.3451 9.07481 23.4023 9.14609 23.4248 9.22702C23.457 9.34263 23.405 9.46919 23.2855 9.57714Z"/>
<path d="M13.1588 11.5836L10.7797 11.2456L10.7561 11.2411C10.6265 11.216 10.5528 11.0918 10.5661 10.9599L11.3814 5.16526C11.4087 5.02388 11.5235 4.93607 11.6671 4.95164L14.0462 5.2896L14.0698 5.29415C14.1876 5.31694 14.2731 5.44349 14.2504 5.5613L13.4328 11.3677L13.4283 11.3913C13.4055 11.5091 13.2789 11.5946 13.1588 11.5836ZM14.8559 3.44173C14.6713 4.39604 13.7433 5.02322 12.789 4.83863C11.8229 4.65177 11.1957 3.72377 11.3803 2.76946C11.5672 1.80337 12.4952 1.17618 13.4613 1.36305C14.4156 1.54764 15.0428 2.47563 14.8559 3.44173Z"/>
<path d="M5.41575 14.9093L3.05214 15.3461C2.93551 15.3744 2.80512 15.2948 2.77404 15.1665L2.76839 15.1432L1.00292 5.81669C0.983503 5.68557 1.06304 5.55518 1.17967 5.52693L1.20299 5.52128L3.17608 5.15442C3.63237 4.84633 4.12293 4.62872 4.61276 4.51005C6.66539 4.0128 8.86973 5.05923 9.38393 7.18183C9.89813 9.30444 8.71856 11.0101 6.51432 11.5441C6.02448 11.6627 5.52936 11.7086 5.06394 11.6732L5.61583 14.6139C5.63807 14.7567 5.5557 14.8754 5.41575 14.9093ZM4.20663 7.1149L4.6434 9.47851C4.93106 9.54464 5.29188 9.55601 5.61843 9.4769C5.71173 9.4543 6.83135 9.18307 6.52057 7.90018C6.32562 7.09545 5.58355 6.68256 4.76716 6.88033C4.58056 6.92554 4.39077 7.00855 4.20663 7.1149Z"/>
</mask>
<path d="M52.2252 23.2101L49.8747 23.6519C49.7319 23.6706 49.6005 23.5911 49.5817 23.4483L48.4361 17.3052C48.4174 17.1624 48.5088 17.0294 48.6397 17.0122L50.0105 16.7596C50.6264 16.4729 51.2326 16.2965 51.8275 16.2184C52.232 16.1653 52.6309 16.1613 53.0107 16.1961C53.1954 16.2203 53.2793 16.3061 53.298 16.4489C53.3043 16.4965 53.2986 16.5456 53.2945 16.6067L53.1698 18.3296C53.156 18.5008 53.0479 18.5997 52.9052 18.6185C52.8695 18.6232 52.8203 18.6175 52.7712 18.6119C52.573 18.5774 52.366 18.5683 52.1638 18.5948C51.9972 18.6167 51.8338 18.6624 51.6496 18.735L52.4288 22.9171L52.4319 22.9409C52.4491 23.0718 52.3561 23.1929 52.2252 23.2101Z" fill="#B4DCFF"/>
<path d="M44.2716 23.6488L44.1292 23.6271C41.4362 23.2176 40.3634 21.1731 40.6376 19.3698C40.8956 17.6733 42.3644 16.076 45.0693 16.4873C48.0115 16.9347 47.7433 19.5764 47.6837 19.9679C47.6008 20.5136 47.3068 20.9302 46.5708 21.061C45.9843 21.166 45.0865 21.163 44.466 21.0929C44.2762 21.0641 44.2295 20.972 44.2037 20.8224C44.1209 20.4093 44.0127 19.6039 44.02 19.5564C44.0398 19.4259 44.1437 19.381 44.3034 19.3689C44.9419 19.3203 45.0286 19.3092 45.0538 19.1431C45.0701 19.0364 44.9024 18.6225 44.4041 18.5467C43.8347 18.4601 43.2844 18.8862 43.1725 19.6218C43.0444 20.4641 43.517 21.507 45 21.7325C45.083 21.7451 45.1779 21.7595 45.2628 21.7603L45.2865 21.7639C45.4526 21.7892 45.638 21.9266 45.6074 22.1283C45.5893 22.2469 45.1582 23.0067 44.9189 23.3831C44.7951 23.5584 44.6156 23.7011 44.2716 23.6488Z" fill="#B4DCFF"/>
<path d="M40.4778 21.1294L39.7748 22.6672C39.7033 22.8139 39.6213 22.9015 39.5031 22.9224C39.444 22.9329 39.3689 22.9218 39.2897 22.887C38.5646 22.5765 36.9266 21.9278 36.2571 21.6562C36.1778 21.6214 36.0902 21.5394 36.0714 21.4331C36.061 21.374 36.0742 21.3107 36.1207 21.2294L36.8092 20.0231C36.2672 20.4723 35.7758 20.8639 35.5604 21.0238L35.4957 21.0718L35.9593 23.0737C35.9844 23.2155 35.9107 23.3503 35.7689 23.3754L33.4286 23.9232C33.2986 23.9462 33.1637 23.8725 33.1268 23.7328L30.9238 14.1662L30.9196 14.1426C30.8987 14.0244 30.9863 13.8993 31.1024 13.8666L33.4448 13.3306L33.4684 13.3264C33.5984 13.3035 33.7118 13.3931 33.7466 13.521L34.8944 18.4972C35.312 18.0334 37.0771 16.1615 37.597 16.0696C37.6916 16.0529 37.8063 16.0814 37.928 16.2183L39.1908 17.6401C39.2506 17.7027 39.2867 17.7694 39.2993 17.8403C39.3202 17.9585 39.2681 18.0774 39.1388 18.1733C38.8684 18.3674 38.2596 18.8527 37.6196 19.368C38.4927 19.4818 40.4415 20.4412 40.5188 20.8784C40.5313 20.9493 40.5202 21.0244 40.4778 21.1294Z" fill="#B4DCFF"/>
<path d="M30.3819 22.4983L29.409 23.808C29.2689 23.9914 29.1328 24.0782 28.9789 24.0525C28.8605 24.0328 28.0636 23.7051 27.5647 23.05C26.8958 23.2668 26.233 23.3022 25.6293 23.2014C23.6527 22.8715 22.2011 21.072 22.5192 19.1663C22.7563 17.746 24.1042 15.8662 26.4477 16.2574C27.0396 16.3562 27.5978 16.5832 28.0258 16.8615C28.1107 16.7905 28.2231 16.7727 28.3652 16.7965L28.4243 16.8063L30.4424 17.3257C30.7462 17.4007 30.8033 17.5684 30.7796 17.7104L30.7697 17.7696C30.4243 18.8191 30.0867 19.8212 29.9563 20.6024C29.8377 21.3125 29.883 21.8432 30.2281 22.1077C30.3366 22.1866 30.455 22.2793 30.4352 22.3977C30.4313 22.4214 30.4135 22.4549 30.3819 22.4983ZM27.0581 21.0554C27.074 20.7417 27.1056 20.4063 27.1669 20.0394C27.2183 19.7317 27.2834 19.4141 27.3664 19.0629C27.2639 18.8025 26.9719 18.5835 26.6287 18.5262C25.883 18.4017 25.3482 19.0546 25.2475 19.6582C25.1368 20.321 25.5036 20.9662 26.273 21.0946C26.4978 21.1322 26.7661 21.1283 27.0581 21.0554Z" fill="#B4DCFF"/>
<path d="M17.9762 23.0531L15.8072 23.5931L15.7836 23.5977C15.6658 23.6204 15.5511 23.5325 15.5143 23.4051L14.9176 20.9415C14.6294 19.7627 14.2866 19.3155 13.5329 19.3996L14.5689 23.6361C14.5962 23.7775 14.5223 23.9017 14.395 23.9384L12.2119 24.4689L12.1884 24.4735C12.0705 24.4962 11.9558 24.4083 11.9191 24.2809L10.4443 18.2103L10.4397 18.1867C10.4147 18.0571 10.4909 17.9447 10.6064 17.9102L11.3066 17.7387C11.869 17.4226 12.44 17.2149 13.0056 17.1059C13.5359 17.0038 14.0466 16.9909 14.5402 17.0792C15.2399 16.6511 15.9337 16.383 16.5936 16.2559C18.6675 15.8565 20.4395 16.8716 20.9822 18.9912C21.1768 19.7481 21.4177 20.3005 22.0555 20.6298C22.1375 20.6751 22.3016 20.7657 22.3266 20.8953C22.3379 20.9542 22.328 21.0295 22.2686 21.102C22.2732 21.1256 21.4554 22.273 21.4554 22.273C21.3485 22.4158 21.2515 22.4833 21.1337 22.506C20.9687 22.5378 19.0484 22.5289 18.4598 20.2348C18.1558 18.9735 17.8176 18.5498 17.1277 18.5849L18.1501 22.7508C18.1774 22.8922 18.1035 23.0164 17.9762 23.0531Z" fill="#B4DCFF"/>
<path d="M60.0468 10.083L59.1582 11.4563C59.0224 11.663 58.8943 11.7614 58.7173 11.7287C58.6819 11.7221 58.6465 11.7156 58.6133 11.6972C56.7834 10.9682 56.3147 9.80764 56.8078 6.81136L55.9316 6.60048C55.804 6.56467 55.7196 6.42703 55.7436 6.29723L56.2475 4.36464C56.2833 4.23703 56.4091 4.15047 56.5507 4.17666L57.2972 4.36354C57.4037 3.91951 57.5168 3.44008 57.6461 2.93923C57.684 2.79982 57.7491 2.57998 58.0559 2.63673L58.1031 2.64546L60.3136 3.16415C60.5121 3.21305 60.5846 3.34851 60.5475 3.54911C60.4323 4.04034 60.3008 4.55298 60.1738 5.04203L60.9792 5.23982C61.109 5.26383 61.1934 5.40147 61.1672 5.54307L60.6633 7.47566C60.6297 7.59147 60.5157 7.68021 60.3859 7.6562L60.3623 7.65184L59.59 7.47239C59.3914 8.54618 59.3824 9.38656 59.8601 9.70679C59.979 9.7898 60.1119 9.86319 60.0879 9.99298C60.0835 10.0166 60.0652 10.0498 60.0468 10.083Z" fill="#B4DCFF"/>
<path d="M53.8186 11.243L51.4886 11.7825C51.3467 11.8072 51.2121 11.7332 51.1874 11.5914L49.7862 5.50143C49.7615 5.35956 49.8473 5.22282 49.9774 5.20018L51.3364 4.89053C51.9398 4.57843 52.5381 4.37684 53.1292 4.27394C53.5312 4.20397 53.9296 4.18335 54.3105 4.20231C54.496 4.21873 54.5834 4.30096 54.6081 4.44283C54.6163 4.49012 54.6128 4.53946 54.6112 4.60063L54.5585 6.32725C54.5519 6.49893 54.4481 6.60227 54.3062 6.62696C54.2707 6.63313 54.2214 6.62954 54.172 6.62595C53.9726 6.59977 53.7654 6.59929 53.5645 6.63427C53.399 6.66308 53.2376 6.71554 53.0566 6.79575L54.0098 10.9417L54.0139 10.9654C54.0365 11.0954 53.9486 11.2203 53.8186 11.243Z" fill="#B4DCFF"/>
<path d="M49.1356 10.0668L48.3399 11.4911C48.2246 11.6911 48.1008 11.7947 47.9449 11.7891C47.8249 11.7847 46.9924 11.5626 46.4131 10.9774C45.7778 11.2787 45.1251 11.3993 44.5135 11.3773C42.5108 11.3052 40.8392 9.70799 40.9087 7.77724C40.9605 6.33817 42.0546 4.30023 44.429 4.38573C45.0286 4.40733 45.6115 4.5604 46.0719 4.78111C46.1468 4.69976 46.2561 4.66767 46.4 4.67285L46.4599 4.67501L48.5281 4.9296C48.839 4.96482 48.9174 5.12374 48.9122 5.26764L48.91 5.32761C48.7028 6.41285 48.4974 7.45013 48.4689 8.24162C48.443 8.96115 48.5563 9.48157 48.9327 9.69925C49.0505 9.76353 49.1798 9.84024 49.1755 9.96016C49.1746 9.98414 49.1613 10.0197 49.1356 10.0668ZM45.6534 9.06483C45.6287 8.75173 45.6168 8.41509 45.6302 8.04333C45.6414 7.73153 45.6651 7.40817 45.702 7.04927C45.5667 6.80424 45.249 6.62469 44.9012 6.61217C44.1457 6.58496 43.6996 7.30137 43.6776 7.91298C43.6534 8.58454 44.1004 9.17701 44.8799 9.20508C45.1077 9.21329 45.3733 9.17482 45.6534 9.06483Z" fill="#B4DCFF"/>
<path d="M35.4423 11.189L33.0559 11.5399C32.9253 11.5591 32.8028 11.468 32.7836 11.3374L31.3572 1.63771C31.3362 1.49524 31.4273 1.37268 31.5579 1.35347L33.9443 1.00255C34.0749 0.983342 34.1974 1.07448 34.2184 1.21695L35.6448 10.9166C35.664 11.0472 35.5729 11.1698 35.4423 11.189Z" fill="#B4DCFF"/>
<path d="M27.158 11.7267L27.0175 11.6948C24.3609 11.0926 23.438 8.97619 23.8413 7.19733C24.2206 5.52379 25.8006 4.03629 28.4689 4.64118C31.3712 5.29913 30.9137 7.91469 30.8261 8.30089C30.7041 8.83923 30.3809 9.23354 29.6374 9.31107C29.0449 9.37363 28.1497 9.30603 27.5358 9.19148C27.3485 9.14904 27.3086 9.05385 27.2936 8.9028C27.2407 8.48476 27.1908 7.67366 27.2014 7.62684C27.2306 7.49811 27.3375 7.46082 27.4976 7.4602C28.138 7.45772 28.2252 7.45289 28.2624 7.28904C28.2863 7.18372 28.1488 6.75881 27.6573 6.64738C27.0955 6.52004 26.516 6.90545 26.3515 7.63103C26.1631 8.46195 26.5594 9.53615 28.0223 9.86778C28.1042 9.88635 28.1979 9.90758 28.2824 9.91445L28.3058 9.91975C28.4697 9.95689 28.6448 10.1073 28.5997 10.3063C28.5731 10.4233 28.0884 11.1501 27.8227 11.5082C27.6866 11.6743 27.4973 11.8036 27.158 11.7267Z" fill="#B4DCFF"/>
<path d="M23.2855 9.57714L21.8452 10.9368C21.7289 11.0563 21.6345 11.1199 21.542 11.1456C21.4264 11.1778 21.3063 11.1489 21.1405 11.0455L19.6114 10.026C19.1755 10.6081 18.6785 11.1947 18.3144 11.6322C18.2097 11.7485 18.1217 11.8353 18.0061 11.8674C17.9368 11.8867 17.8494 11.8861 17.7492 11.8392L16.0795 11.1203C15.9234 11.0516 15.8367 10.9636 15.8109 10.8711C15.7884 10.7902 15.8006 10.6996 15.8706 10.593C16.1672 10.1368 16.7387 9.28042 17.2439 8.45486L15.2079 7.09049C15.0865 7.01216 15.0261 6.92931 15.0036 6.84838C14.9714 6.73277 15.035 6.603 15.1544 6.49505L16.6494 5.10777C16.729 5.03581 16.8035 4.99018 16.8844 4.96767C17.0347 4.92587 17.196 4.96822 17.3354 5.06646L18.8054 6.05266L19.6702 4.50434C19.7286 4.40091 19.7934 4.3206 19.8975 4.29166C19.99 4.26594 20.1069 4.28325 20.263 4.35193L22.1119 5.13311C22.2385 5.1851 22.304 5.24161 22.3265 5.32253C22.4358 5.71562 21.4381 7.41299 21.268 7.69696L23.2385 9.00483C23.3451 9.07481 23.4023 9.14609 23.4248 9.22702C23.457 9.34263 23.405 9.46919 23.2855 9.57714Z" fill="#B4DCFF"/>
<path d="M13.1588 11.5836L10.7797 11.2456L10.7561 11.2411C10.6265 11.216 10.5528 11.0918 10.5661 10.9599L11.3814 5.16526C11.4087 5.02388 11.5235 4.93607 11.6671 4.95164L14.0462 5.2896L14.0698 5.29415C14.1876 5.31694 14.2731 5.44349 14.2504 5.5613L13.4328 11.3677L13.4283 11.3913C13.4055 11.5091 13.2789 11.5946 13.1588 11.5836ZM14.8559 3.44173C14.6713 4.39604 13.7433 5.02322 12.789 4.83863C11.8229 4.65177 11.1957 3.72377 11.3803 2.76946C11.5672 1.80337 12.4952 1.17618 13.4613 1.36305C14.4156 1.54764 15.0428 2.47563 14.8559 3.44173Z" fill="#B4DCFF"/>
<path d="M5.41575 14.9093L3.05214 15.3461C2.93551 15.3744 2.80512 15.2948 2.77404 15.1665L2.76839 15.1432L1.00292 5.81669C0.983503 5.68557 1.06304 5.55518 1.17967 5.52693L1.20299 5.52128L3.17608 5.15442C3.63237 4.84633 4.12293 4.62872 4.61276 4.51005C6.66539 4.0128 8.86973 5.05923 9.38393 7.18183C9.89813 9.30444 8.71856 11.0101 6.51432 11.5441C6.02448 11.6627 5.52936 11.7086 5.06394 11.6732L5.61583 14.6139C5.63807 14.7567 5.5557 14.8754 5.41575 14.9093ZM4.20663 7.1149L4.6434 9.47851C4.93106 9.54464 5.29188 9.55601 5.61843 9.4769C5.71173 9.4543 6.83135 9.18307 6.52057 7.90018C6.32562 7.09545 5.58355 6.68256 4.76716 6.88033C4.58056 6.92554 4.39077 7.00855 4.20663 7.1149Z" fill="#B4DCFF"/>
<path d="M52.2252 23.2101L49.8747 23.6519C49.7319 23.6706 49.6005 23.5911 49.5817 23.4483L48.4361 17.3052C48.4174 17.1624 48.5088 17.0294 48.6397 17.0122L50.0105 16.7596C50.6264 16.4729 51.2326 16.2965 51.8275 16.2184C52.232 16.1653 52.6309 16.1613 53.0107 16.1961C53.1954 16.2203 53.2793 16.3061 53.298 16.4489C53.3043 16.4965 53.2986 16.5456 53.2945 16.6067L53.1698 18.3296C53.156 18.5008 53.0479 18.5997 52.9052 18.6185C52.8695 18.6232 52.8203 18.6175 52.7712 18.6119C52.573 18.5774 52.366 18.5683 52.1638 18.5948C51.9972 18.6167 51.8338 18.6624 51.6496 18.735L52.4288 22.9171L52.4319 22.9409C52.4491 23.0718 52.3561 23.1929 52.2252 23.2101Z" stroke="#76BFFF" stroke-opacity="0.1" stroke-width="2" mask="url(#path-2-outside-2_1_41)"/>
<path d="M44.2716 23.6488L44.1292 23.6271C41.4362 23.2176 40.3634 21.1731 40.6376 19.3698C40.8956 17.6733 42.3644 16.076 45.0693 16.4873C48.0115 16.9347 47.7433 19.5764 47.6837 19.9679C47.6008 20.5136 47.3068 20.9302 46.5708 21.061C45.9843 21.166 45.0865 21.163 44.466 21.0929C44.2762 21.0641 44.2295 20.972 44.2037 20.8224C44.1209 20.4093 44.0127 19.6039 44.02 19.5564C44.0398 19.4259 44.1437 19.381 44.3034 19.3689C44.9419 19.3203 45.0286 19.3092 45.0538 19.1431C45.0701 19.0364 44.9024 18.6225 44.4041 18.5467C43.8347 18.4601 43.2844 18.8862 43.1725 19.6218C43.0444 20.4641 43.517 21.507 45 21.7325C45.083 21.7451 45.1779 21.7595 45.2628 21.7603L45.2865 21.7639C45.4526 21.7892 45.638 21.9266 45.6074 22.1283C45.5893 22.2469 45.1582 23.0067 44.9189 23.3831C44.7951 23.5584 44.6156 23.7011 44.2716 23.6488Z" stroke="#76BFFF" stroke-opacity="0.1" stroke-width="2" mask="url(#path-2-outside-2_1_41)"/>
<path d="M40.4778 21.1294L39.7748 22.6672C39.7033 22.8139 39.6213 22.9015 39.5031 22.9224C39.444 22.9329 39.3689 22.9218 39.2897 22.887C38.5646 22.5765 36.9266 21.9278 36.2571 21.6562C36.1778 21.6214 36.0902 21.5394 36.0714 21.4331C36.061 21.374 36.0742 21.3107 36.1207 21.2294L36.8092 20.0231C36.2672 20.4723 35.7758 20.8639 35.5604 21.0238L35.4957 21.0718L35.9593 23.0737C35.9844 23.2155 35.9107 23.3503 35.7689 23.3754L33.4286 23.9232C33.2986 23.9462 33.1637 23.8725 33.1268 23.7328L30.9238 14.1662L30.9196 14.1426C30.8987 14.0244 30.9863 13.8993 31.1024 13.8666L33.4448 13.3306L33.4684 13.3264C33.5984 13.3035 33.7118 13.3931 33.7466 13.521L34.8944 18.4972C35.312 18.0334 37.0771 16.1615 37.597 16.0696C37.6916 16.0529 37.8063 16.0814 37.928 16.2183L39.1908 17.6401C39.2506 17.7027 39.2867 17.7694 39.2993 17.8403C39.3202 17.9585 39.2681 18.0774 39.1388 18.1733C38.8684 18.3674 38.2596 18.8527 37.6196 19.368C38.4927 19.4818 40.4415 20.4412 40.5188 20.8784C40.5313 20.9493 40.5202 21.0244 40.4778 21.1294Z" stroke="#76BFFF" stroke-opacity="0.1" stroke-width="2" mask="url(#path-2-outside-2_1_41)"/>
<path d="M30.3819 22.4983L29.409 23.808C29.2689 23.9914 29.1328 24.0782 28.9789 24.0525C28.8605 24.0328 28.0636 23.7051 27.5647 23.05C26.8958 23.2668 26.233 23.3022 25.6293 23.2014C23.6527 22.8715 22.2011 21.072 22.5192 19.1663C22.7563 17.746 24.1042 15.8662 26.4477 16.2574C27.0396 16.3562 27.5978 16.5832 28.0258 16.8615C28.1107 16.7905 28.2231 16.7727 28.3652 16.7965L28.4243 16.8063L30.4424 17.3257C30.7462 17.4007 30.8033 17.5684 30.7796 17.7104L30.7697 17.7696C30.4243 18.8191 30.0867 19.8212 29.9563 20.6024C29.8377 21.3125 29.883 21.8432 30.2281 22.1077C30.3366 22.1866 30.455 22.2793 30.4352 22.3977C30.4313 22.4214 30.4135 22.4549 30.3819 22.4983ZM27.0581 21.0554C27.074 20.7417 27.1056 20.4063 27.1669 20.0394C27.2183 19.7317 27.2834 19.4141 27.3664 19.0629C27.2639 18.8025 26.9719 18.5835 26.6287 18.5262C25.883 18.4017 25.3482 19.0546 25.2475 19.6582C25.1368 20.321 25.5036 20.9662 26.273 21.0946C26.4978 21.1322 26.7661 21.1283 27.0581 21.0554Z" stroke="#76BFFF" stroke-opacity="0.1" stroke-width="2" mask="url(#path-2-outside-2_1_41)"/>
<path d="M17.9762 23.0531L15.8072 23.5931L15.7836 23.5977C15.6658 23.6204 15.5511 23.5325 15.5143 23.4051L14.9176 20.9415C14.6294 19.7627 14.2866 19.3155 13.5329 19.3996L14.5689 23.6361C14.5962 23.7775 14.5223 23.9017 14.395 23.9384L12.2119 24.4689L12.1884 24.4735C12.0705 24.4962 11.9558 24.4083 11.9191 24.2809L10.4443 18.2103L10.4397 18.1867C10.4147 18.0571 10.4909 17.9447 10.6064 17.9102L11.3066 17.7387C11.869 17.4226 12.44 17.2149 13.0056 17.1059C13.5359 17.0038 14.0466 16.9909 14.5402 17.0792C15.2399 16.6511 15.9337 16.383 16.5936 16.2559C18.6675 15.8565 20.4395 16.8716 20.9822 18.9912C21.1768 19.7481 21.4177 20.3005 22.0555 20.6298C22.1375 20.6751 22.3016 20.7657 22.3266 20.8953C22.3379 20.9542 22.328 21.0295 22.2686 21.102C22.2732 21.1256 21.4554 22.273 21.4554 22.273C21.3485 22.4158 21.2515 22.4833 21.1337 22.506C20.9687 22.5378 19.0484 22.5289 18.4598 20.2348C18.1558 18.9735 17.8176 18.5498 17.1277 18.5849L18.1501 22.7508C18.1774 22.8922 18.1035 23.0164 17.9762 23.0531Z" stroke="#76BFFF" stroke-opacity="0.1" stroke-width="2" mask="url(#path-2-outside-2_1_41)"/>
<path d="M60.0468 10.083L59.1582 11.4563C59.0224 11.663 58.8943 11.7614 58.7173 11.7287C58.6819 11.7221 58.6465 11.7156 58.6133 11.6972C56.7834 10.9682 56.3147 9.80764 56.8078 6.81136L55.9316 6.60048C55.804 6.56467 55.7196 6.42703 55.7436 6.29723L56.2475 4.36464C56.2833 4.23703 56.4091 4.15047 56.5507 4.17666L57.2972 4.36354C57.4037 3.91951 57.5168 3.44008 57.6461 2.93923C57.684 2.79982 57.7491 2.57998 58.0559 2.63673L58.1031 2.64546L60.3136 3.16415C60.5121 3.21305 60.5846 3.34851 60.5475 3.54911C60.4323 4.04034 60.3008 4.55298 60.1738 5.04203L60.9792 5.23982C61.109 5.26383 61.1934 5.40147 61.1672 5.54307L60.6633 7.47566C60.6297 7.59147 60.5157 7.68021 60.3859 7.6562L60.3623 7.65184L59.59 7.47239C59.3914 8.54618 59.3824 9.38656 59.8601 9.70679C59.979 9.7898 60.1119 9.86319 60.0879 9.99298C60.0835 10.0166 60.0652 10.0498 60.0468 10.083Z" stroke="#76BFFF" stroke-opacity="0.1" stroke-width="2" mask="url(#path-2-outside-2_1_41)"/>
<path d="M53.8186 11.243L51.4886 11.7825C51.3467 11.8072 51.2121 11.7332 51.1874 11.5914L49.7862 5.50143C49.7615 5.35956 49.8473 5.22282 49.9774 5.20018L51.3364 4.89053C51.9398 4.57843 52.5381 4.37684 53.1292 4.27394C53.5312 4.20397 53.9296 4.18335 54.3105 4.20231C54.496 4.21873 54.5834 4.30096 54.6081 4.44283C54.6163 4.49012 54.6128 4.53946 54.6112 4.60063L54.5585 6.32725C54.5519 6.49893 54.4481 6.60227 54.3062 6.62696C54.2707 6.63313 54.2214 6.62954 54.172 6.62595C53.9726 6.59977 53.7654 6.59929 53.5645 6.63427C53.399 6.66308 53.2376 6.71554 53.0566 6.79575L54.0098 10.9417L54.0139 10.9654C54.0365 11.0954 53.9486 11.2203 53.8186 11.243Z" stroke="#76BFFF" stroke-opacity="0.1" stroke-width="2" mask="url(#path-2-outside-2_1_41)"/>
<path d="M49.1356 10.0668L48.3399 11.4911C48.2246 11.6911 48.1008 11.7947 47.9449 11.7891C47.8249 11.7847 46.9924 11.5626 46.4131 10.9774C45.7778 11.2787 45.1251 11.3993 44.5135 11.3773C42.5108 11.3052 40.8392 9.70799 40.9087 7.77724C40.9605 6.33817 42.0546 4.30023 44.429 4.38573C45.0286 4.40733 45.6115 4.5604 46.0719 4.78111C46.1468 4.69976 46.2561 4.66767 46.4 4.67285L46.4599 4.67501L48.5281 4.9296C48.839 4.96482 48.9174 5.12374 48.9122 5.26764L48.91 5.32761C48.7028 6.41285 48.4974 7.45013 48.4689 8.24162C48.443 8.96115 48.5563 9.48157 48.9327 9.69925C49.0505 9.76353 49.1798 9.84024 49.1755 9.96016C49.1746 9.98414 49.1613 10.0197 49.1356 10.0668ZM45.6534 9.06483C45.6287 8.75173 45.6168 8.41509 45.6302 8.04333C45.6414 7.73153 45.6651 7.40817 45.702 7.04927C45.5667 6.80424 45.249 6.62469 44.9012 6.61217C44.1457 6.58496 43.6996 7.30137 43.6776 7.91298C43.6534 8.58454 44.1004 9.17701 44.8799 9.20508C45.1077 9.21329 45.3733 9.17482 45.6534 9.06483Z" stroke="#76BFFF" stroke-opacity="0.1" stroke-width="2" mask="url(#path-2-outside-2_1_41)"/>
<path d="M35.4423 11.189L33.0559 11.5399C32.9253 11.5591 32.8028 11.468 32.7836 11.3374L31.3572 1.63771C31.3362 1.49524 31.4273 1.37268 31.5579 1.35347L33.9443 1.00255C34.0749 0.983342 34.1974 1.07448 34.2184 1.21695L35.6448 10.9166C35.664 11.0472 35.5729 11.1698 35.4423 11.189Z" stroke="#76BFFF" stroke-opacity="0.1" stroke-width="2" mask="url(#path-2-outside-2_1_41)"/>
<path d="M27.158 11.7267L27.0175 11.6948C24.3609 11.0926 23.438 8.97619 23.8413 7.19733C24.2206 5.52379 25.8006 4.03629 28.4689 4.64118C31.3712 5.29913 30.9137 7.91469 30.8261 8.30089C30.7041 8.83923 30.3809 9.23354 29.6374 9.31107C29.0449 9.37363 28.1497 9.30603 27.5358 9.19148C27.3485 9.14904 27.3086 9.05385 27.2936 8.9028C27.2407 8.48476 27.1908 7.67366 27.2014 7.62684C27.2306 7.49811 27.3375 7.46082 27.4976 7.4602C28.138 7.45772 28.2252 7.45289 28.2624 7.28904C28.2863 7.18372 28.1488 6.75881 27.6573 6.64738C27.0955 6.52004 26.516 6.90545 26.3515 7.63103C26.1631 8.46195 26.5594 9.53615 28.0223 9.86778C28.1042 9.88635 28.1979 9.90758 28.2824 9.91445L28.3058 9.91975C28.4697 9.95689 28.6448 10.1073 28.5997 10.3063C28.5731 10.4233 28.0884 11.1501 27.8227 11.5082C27.6866 11.6743 27.4973 11.8036 27.158 11.7267Z" stroke="#76BFFF" stroke-opacity="0.1" stroke-width="2" mask="url(#path-2-outside-2_1_41)"/>
<path d="M23.2855 9.57714L21.8452 10.9368C21.7289 11.0563 21.6345 11.1199 21.542 11.1456C21.4264 11.1778 21.3063 11.1489 21.1405 11.0455L19.6114 10.026C19.1755 10.6081 18.6785 11.1947 18.3144 11.6322C18.2097 11.7485 18.1217 11.8353 18.0061 11.8674C17.9368 11.8867 17.8494 11.8861 17.7492 11.8392L16.0795 11.1203C15.9234 11.0516 15.8367 10.9636 15.8109 10.8711C15.7884 10.7902 15.8006 10.6996 15.8706 10.593C16.1672 10.1368 16.7387 9.28042 17.2439 8.45486L15.2079 7.09049C15.0865 7.01216 15.0261 6.92931 15.0036 6.84838C14.9714 6.73277 15.035 6.603 15.1544 6.49505L16.6494 5.10777C16.729 5.03581 16.8035 4.99018 16.8844 4.96767C17.0347 4.92587 17.196 4.96822 17.3354 5.06646L18.8054 6.05266L19.6702 4.50434C19.7286 4.40091 19.7934 4.3206 19.8975 4.29166C19.99 4.26594 20.1069 4.28325 20.263 4.35193L22.1119 5.13311C22.2385 5.1851 22.304 5.24161 22.3265 5.32253C22.4358 5.71562 21.4381 7.41299 21.268 7.69696L23.2385 9.00483C23.3451 9.07481 23.4023 9.14609 23.4248 9.22702C23.457 9.34263 23.405 9.46919 23.2855 9.57714Z" stroke="#76BFFF" stroke-opacity="0.1" stroke-width="2" mask="url(#path-2-outside-2_1_41)"/>
<path d="M13.1588 11.5836L10.7797 11.2456L10.7561 11.2411C10.6265 11.216 10.5528 11.0918 10.5661 10.9599L11.3814 5.16526C11.4087 5.02388 11.5235 4.93607 11.6671 4.95164L14.0462 5.2896L14.0698 5.29415C14.1876 5.31694 14.2731 5.44349 14.2504 5.5613L13.4328 11.3677L13.4283 11.3913C13.4055 11.5091 13.2789 11.5946 13.1588 11.5836ZM14.8559 3.44173C14.6713 4.39604 13.7433 5.02322 12.789 4.83863C11.8229 4.65177 11.1957 3.72377 11.3803 2.76946C11.5672 1.80337 12.4952 1.17618 13.4613 1.36305C14.4156 1.54764 15.0428 2.47563 14.8559 3.44173Z" stroke="#76BFFF" stroke-opacity="0.1" stroke-width="2" mask="url(#path-2-outside-2_1_41)"/>
<path d="M5.41575 14.9093L3.05214 15.3461C2.93551 15.3744 2.80512 15.2948 2.77404 15.1665L2.76839 15.1432L1.00292 5.81669C0.983503 5.68557 1.06304 5.55518 1.17967 5.52693L1.20299 5.52128L3.17608 5.15442C3.63237 4.84633 4.12293 4.62872 4.61276 4.51005C6.66539 4.0128 8.86973 5.05923 9.38393 7.18183C9.89813 9.30444 8.71856 11.0101 6.51432 11.5441C6.02448 11.6627 5.52936 11.7086 5.06394 11.6732L5.61583 14.6139C5.63807 14.7567 5.5557 14.8754 5.41575 14.9093ZM4.20663 7.1149L4.6434 9.47851C4.93106 9.54464 5.29188 9.55601 5.61843 9.4769C5.71173 9.4543 6.83135 9.18307 6.52057 7.90018C6.32562 7.09545 5.58355 6.68256 4.76716 6.88033C4.58056 6.92554 4.39077 7.00855 4.20663 7.1149Z" stroke="#76BFFF" stroke-opacity="0.1" stroke-width="2" mask="url(#path-2-outside-2_1_41)"/>
</mask>
<g mask="url(#mask0_1_41)">
<path d="M15.938 21.3266L16.9531 22.543C20.3612 26.6267 25.4059 28.9872 30.7249 28.9872H36.1927C39.8033 28.9872 43.2663 27.5543 45.8213 25.0031C47.3192 23.5074 48.4481 21.6832 49.1184 19.6753L49.471 18.6192C49.9475 17.1918 50.2465 15.7112 50.3613 14.2108L50.6445 10.5079C50.8008 8.46572 50.3094 6.42629 49.2403 4.67939C48.0528 2.73912 46.2238 1.27558 44.0703 0.542533L36.2436 -2.12173C32.6322 -3.35109 28.7252 -3.41129 25.0776 -2.29379L22.7494 -1.5805C17.3998 0.0584226 13.4913 4.65809 12.7373 10.202C12.1942 14.1952 13.3558 18.2326 15.938 21.3266Z" fill="#FFF4B4"/>
<path d="M20.7793 18.6983L21.1646 19.2244C23.8173 22.8467 28.038 24.9872 32.5277 24.9872H34.8084C37.7174 24.9872 40.4856 23.7347 42.4058 21.5496C43.38 20.441 44.0998 19.1326 44.5147 17.7163L44.889 16.4387C45.2186 15.3135 45.4245 14.1557 45.503 12.9859L45.73 9.60452C45.8312 8.09709 45.5057 6.59164 44.7909 5.26062C43.8835 3.57098 42.4022 2.26122 40.6142 1.56758L35.7828 -0.306648C32.9441 -1.40788 29.8059 -1.46147 26.9312 -0.457815L26.7104 -0.380731C22.2276 1.1844 19.028 5.16669 18.4654 9.88143C18.0923 13.0074 18.9193 16.1584 20.7793 18.6983Z" fill="#FFB4B4"/>
<path d="M22.9543 17.5644L23.2564 17.9707C25.1348 20.4977 28.0979 21.9872 31.2466 21.9872H33.0194C35.0696 21.9872 37.0224 21.1123 38.3872 19.5824C39.0912 18.793 39.6126 17.8581 39.914 16.8443L40.1721 15.9764C40.4084 15.1815 40.5562 14.3628 40.6125 13.5354L40.7729 11.182C40.846 10.1089 40.6114 9.03735 40.0967 8.09305C39.4528 6.91197 38.4088 5.99928 37.1523 5.51906L33.6345 4.1746C31.6274 3.40751 29.4145 3.37015 27.3826 4.06905L27.101 4.16591C23.9542 5.24829 21.7022 8.03304 21.302 11.3366C21.0342 13.5476 21.6257 15.777 22.9543 17.5644Z" fill="#FFB4B4" fill-opacity="0.25"/>
<path d="M-115.991 8.97903L-118.505 9.57689C-122.755 10.5875 -126.92 7.61693 -127.348 3.26976C-127.761 -0.922356 -124.508 -4.57434 -120.296 -4.64625L-25.6151 -6.26276L68.3889 -7.8677C73.0575 -7.94741 76.8849 -4.1848 76.8849 0.484412V1.35357C76.8849 6.1105 72.5782 9.70695 67.8975 8.85887C66.5547 8.61558 65.1712 8.73699 63.8914 9.21045L62.0668 9.8854C58.4265 11.232 54.402 11.0891 50.8664 9.48759L50.3527 9.2549C47.1452 7.80204 43.4943 7.67237 40.1918 8.89401L39.4539 9.167C37.1408 10.0227 34.6084 10.0825 32.2575 9.3371L29.376 8.42347C27.5383 7.84078 25.5301 8.24247 24.0579 9.48724C22.5858 10.732 20.5776 11.1337 18.7398 10.551L13.1532 8.77964C10.4815 7.93251 7.63583 7.79192 4.8936 8.37158L3.51599 8.66278C0.937592 9.20781 -1.71886 9.27568 -4.32174 8.86303L-9.13316 8.10024C-11.6667 7.69858 -14.2612 7.96722 -16.6587 8.87944L-16.9433 8.98772C-19.5113 9.96479 -22.3136 10.1474 -24.9867 9.5117L-31.499 7.96304C-32.7191 7.6729 -33.9966 8.11739 -34.7731 9.1022C-35.829 10.4414 -37.7459 10.7253 -39.1447 9.74959L-41.6924 7.97235C-43.4713 6.73146 -45.7511 6.45729 -47.7735 7.24103L-52.986 9.26106C-56.6898 10.6964 -60.7882 10.7416 -64.5227 9.38833C-67.9248 8.15551 -71.6387 8.0801 -75.0881 9.17379L-77.8086 10.0364C-80.7759 10.9772 -83.9708 10.9124 -86.8974 9.85185L-89.5844 8.87817C-92.0053 8.0009 -94.6961 8.29468 -96.8707 9.67369C-98.7041 10.8364 -100.92 11.2359 -103.044 10.7869L-111.843 8.92687C-113.213 8.63739 -114.629 8.65521 -115.991 8.97903Z" stroke="#FFE2B4"/>
<path d="M-104.991 21.9955L-107.505 21.3976C-111.755 20.387 -115.92 23.3576 -116.348 27.7047C-116.761 31.8968 -113.508 35.5488 -109.296 35.6207L-14.6151 37.2372L79.3889 38.8422C84.0575 38.9219 87.8849 35.1593 87.8849 30.4901V29.6209C87.8849 24.864 83.5782 21.2675 78.8975 22.1156C77.5547 22.3589 76.1712 22.2375 74.8914 21.764L73.0668 21.0891C69.4265 19.7425 65.402 19.8854 61.8664 21.4869L61.3527 21.7196C58.1452 23.1724 54.4943 23.3021 51.1918 22.0805L50.4539 21.8075C48.1408 20.9518 45.6084 20.892 43.2575 21.6374L40.376 22.551C38.5383 23.1337 36.5301 22.732 35.0579 21.4872C33.5858 20.2425 31.5776 19.8408 29.7398 20.4235L24.1532 22.1948C21.4815 23.042 18.6358 23.1826 15.8936 22.6029L14.516 22.3117C11.9376 21.7667 9.28114 21.6988 6.67826 22.1115L1.86684 22.8742C-0.666695 23.2759 -3.26123 23.0073 -5.65872 22.095L-5.94331 21.9868C-8.51127 21.0097 -11.3136 20.8271 -13.9867 21.4628L-20.499 23.0115C-21.7191 23.3016 -22.9966 22.8571 -23.7731 21.8723C-24.829 20.5331 -26.7459 20.2492 -28.1447 21.2249L-30.6924 23.0021C-32.4713 24.243 -34.7511 24.5172 -36.7735 23.7335L-41.986 21.7134C-45.6898 20.2781 -49.7882 20.2329 -53.5227 21.5862C-56.9248 22.819 -60.6387 22.8944 -64.0881 21.8007L-66.8086 20.9381C-69.7759 19.9972 -72.9708 20.0621 -75.8974 21.1226L-78.5844 22.0963C-81.0053 22.9736 -83.6961 22.6798 -85.8707 21.3008C-87.7041 20.1381 -89.9196 19.7386 -92.0437 20.1876L-100.843 22.0476C-102.213 22.3371 -103.629 22.3193 -104.991 21.9955Z" stroke="#FFD7FA"/>
</g>
</svg>
